%
M48
M72
T01C0.01969
T02C0.03150
T03C0.04016
T04C0.06700
T05C0.12598
%
T01
X88846Y84156
X93846Y84156
X93846Y89156
X88846Y89156
X88846Y94156
X93846Y94156
X120697Y105180
X125697Y105180
X130697Y105180
X130697Y100180
X135697Y100180
X125697Y100180
T02
X74772Y140180
X84772Y140180
X94772Y140180
T03
X124772Y50180
X134772Y50180
X144772Y50180
X154772Y50180
X164772Y50180
X174772Y50180
X184772Y50180
X194772Y50180
X94772Y120180
X84772Y120180
X74772Y120180
X74772Y130180
X84772Y130180
X94772Y130180
X124772Y140180
X134772Y140180
X144772Y140180
X154772Y140180
X164772Y140180
X174772Y140180
X184772Y140180
X194772Y140180
T04
X214772Y95180
X184772Y95180
X74772Y95180
X44772Y95180
T05
X212449Y49904
X212449Y140455
X47094Y140455
X47094Y49904
M30
