G75*
%MOIN*%
%OFA0B0*%
%FSLAX25Y25*%
%IPPOS*%
%LPD*%
%AMOC8*
5,1,8,0,0,1.08239X$1,22.5*
%
%ADD10C,0.00500*%
%ADD11C,0.00200*%
%ADD12C,0.00300*%
%ADD13C,0.00000*%
%ADD14C,0.00600*%
%ADD15C,0.00400*%
%ADD16C,0.00250*%
%ADD17C,0.01200*%
%ADD18C,0.00591*%
D10*
X0066853Y0040430D02*
X0067871Y0041447D01*
X0067871Y0045517D01*
X0068889Y0044500D02*
X0066853Y0044500D01*
X0070896Y0043482D02*
X0070896Y0040430D01*
X0074966Y0040430D02*
X0074966Y0046535D01*
X0073948Y0044500D02*
X0071913Y0044500D01*
X0070896Y0043482D01*
X0073948Y0044500D02*
X0074966Y0043482D01*
X0076973Y0044500D02*
X0080025Y0044500D01*
X0081043Y0043482D01*
X0081043Y0041447D01*
X0080025Y0040430D01*
X0076973Y0040430D01*
X0076973Y0039412D02*
X0076973Y0044500D01*
X0082037Y0049412D02*
X0083055Y0048395D01*
X0084072Y0048395D01*
X0084077Y0047553D02*
X0084077Y0046535D01*
X0084077Y0044500D02*
X0084077Y0040430D01*
X0085094Y0040430D02*
X0083059Y0040430D01*
X0079008Y0038395D02*
X0077990Y0038395D01*
X0076973Y0039412D01*
X0084077Y0044500D02*
X0085094Y0044500D01*
X0087101Y0043482D02*
X0087101Y0042465D01*
X0091172Y0042465D01*
X0091172Y0043482D02*
X0090154Y0044500D01*
X0088119Y0044500D01*
X0087101Y0043482D01*
X0088119Y0040430D02*
X0090154Y0040430D01*
X0091172Y0041447D01*
X0091172Y0043482D01*
X0093179Y0040430D02*
X0093179Y0046535D01*
X0092184Y0050430D02*
X0092184Y0054500D01*
X0089132Y0054500D01*
X0088114Y0053482D01*
X0088114Y0050430D01*
X0086107Y0051447D02*
X0085090Y0050430D01*
X0082037Y0050430D01*
X0082037Y0049412D02*
X0082037Y0054500D01*
X0080030Y0053482D02*
X0075960Y0053482D01*
X0073953Y0051447D02*
X0072935Y0050430D01*
X0070900Y0050430D01*
X0069883Y0051447D01*
X0069883Y0052465D01*
X0070900Y0053482D01*
X0071918Y0053482D01*
X0070900Y0053482D02*
X0069883Y0054500D01*
X0069883Y0055517D01*
X0070900Y0056535D01*
X0072935Y0056535D01*
X0073953Y0055517D01*
X0076977Y0056535D02*
X0080030Y0053482D01*
X0076977Y0050430D02*
X0076977Y0056535D01*
X0067876Y0056535D02*
X0067876Y0051447D01*
X0066858Y0050430D01*
X0064823Y0050430D01*
X0063806Y0051447D01*
X0063806Y0056535D01*
X0086107Y0054500D02*
X0086107Y0051447D01*
X0094201Y0050430D02*
X0096236Y0050430D01*
X0095218Y0050430D02*
X0095218Y0054500D01*
X0096236Y0054500D01*
X0098252Y0054500D02*
X0100287Y0054500D01*
X0099270Y0055517D02*
X0099270Y0051447D01*
X0098252Y0050430D01*
X0097249Y0046535D02*
X0093179Y0040430D01*
X0097249Y0040430D02*
X0097249Y0046535D01*
X0099256Y0044500D02*
X0102308Y0044500D01*
X0103326Y0043482D01*
X0103326Y0041447D01*
X0102308Y0040430D01*
X0099256Y0040430D01*
X0105333Y0040430D02*
X0105333Y0046535D01*
X0107368Y0044500D01*
X0109403Y0046535D01*
X0109403Y0040430D01*
X0108372Y0050430D02*
X0108372Y0054500D01*
X0110407Y0056535D01*
X0112442Y0054500D01*
X0112442Y0050430D01*
X0112442Y0053482D02*
X0108372Y0053482D01*
X0106365Y0056535D02*
X0102294Y0056535D01*
X0104329Y0056535D02*
X0104329Y0050430D01*
X0095218Y0056535D02*
X0095218Y0057553D01*
X0099772Y0135180D02*
X0099772Y0145180D01*
D11*
X0095874Y0147780D02*
X0094406Y0147780D01*
X0093672Y0148514D01*
X0094406Y0149248D01*
X0095874Y0149248D01*
X0095507Y0149990D02*
X0094039Y0149990D01*
X0093672Y0150357D01*
X0093672Y0151091D01*
X0094039Y0151458D01*
X0094039Y0152200D02*
X0093672Y0152567D01*
X0093672Y0153300D01*
X0094039Y0153667D01*
X0094039Y0152200D02*
X0095507Y0152200D01*
X0095874Y0152567D01*
X0095874Y0153300D01*
X0095507Y0153667D01*
X0095507Y0151458D02*
X0095874Y0151091D01*
X0095874Y0150357D01*
X0095507Y0149990D01*
X0085874Y0149990D02*
X0083672Y0151458D01*
X0085874Y0151458D01*
X0085874Y0152200D02*
X0085874Y0153300D01*
X0085507Y0153667D01*
X0084039Y0153667D01*
X0083672Y0153300D01*
X0083672Y0152200D01*
X0085874Y0152200D01*
X0085874Y0149990D02*
X0083672Y0149990D01*
X0084039Y0149248D02*
X0084773Y0149248D01*
X0084773Y0148514D01*
X0085507Y0149248D02*
X0085874Y0148881D01*
X0085874Y0148147D01*
X0085507Y0147780D01*
X0084039Y0147780D01*
X0083672Y0148147D01*
X0083672Y0148881D01*
X0084039Y0149248D01*
X0075874Y0149248D02*
X0074406Y0149248D01*
X0073672Y0148514D01*
X0074406Y0147780D01*
X0075874Y0147780D01*
X0075874Y0149990D02*
X0075874Y0150724D01*
X0075874Y0150357D02*
X0073672Y0150357D01*
X0073672Y0149990D02*
X0073672Y0150724D01*
X0073672Y0151463D02*
X0075874Y0151463D01*
X0073672Y0152931D01*
X0075874Y0152931D01*
X0066438Y0141282D02*
X0065704Y0141282D01*
X0066071Y0141282D02*
X0066071Y0139447D01*
X0066438Y0139080D01*
X0066805Y0139080D01*
X0067172Y0139447D01*
X0064962Y0140181D02*
X0063861Y0141282D01*
X0063861Y0139080D01*
X0063494Y0140181D02*
X0064962Y0140181D01*
X0064595Y0126282D02*
X0063861Y0126282D01*
X0063494Y0125915D01*
X0063494Y0125548D01*
X0063861Y0125181D01*
X0063494Y0124814D01*
X0063494Y0124447D01*
X0063861Y0124080D01*
X0064595Y0124080D01*
X0064962Y0124447D01*
X0064228Y0125181D02*
X0063861Y0125181D01*
X0064962Y0125915D02*
X0064595Y0126282D01*
X0065704Y0126282D02*
X0066438Y0126282D01*
X0066071Y0126282D02*
X0066071Y0124447D01*
X0066438Y0124080D01*
X0066805Y0124080D01*
X0067172Y0124447D01*
X0123672Y0128650D02*
X0125874Y0128650D01*
X0125874Y0129751D01*
X0125507Y0130118D01*
X0124773Y0130118D01*
X0124406Y0129751D01*
X0124406Y0128650D01*
X0124773Y0130860D02*
X0124773Y0131961D01*
X0124406Y0132328D01*
X0124039Y0132328D01*
X0123672Y0131961D01*
X0123672Y0130860D01*
X0125874Y0130860D01*
X0125874Y0131961D01*
X0125507Y0132328D01*
X0125140Y0132328D01*
X0124773Y0131961D01*
X0124039Y0133070D02*
X0123672Y0133070D01*
X0124039Y0133070D02*
X0125507Y0134538D01*
X0125874Y0134538D01*
X0125874Y0133070D01*
X0133672Y0133070D02*
X0135874Y0133070D01*
X0135507Y0132328D02*
X0135874Y0131961D01*
X0135874Y0131227D01*
X0135507Y0130860D01*
X0134039Y0130860D01*
X0133672Y0131227D01*
X0133672Y0131961D01*
X0134039Y0132328D01*
X0134406Y0133070D02*
X0135874Y0134538D01*
X0134773Y0133437D02*
X0133672Y0134538D01*
X0134039Y0130118D02*
X0133672Y0129751D01*
X0133672Y0129017D01*
X0134039Y0128650D01*
X0134773Y0129017D02*
X0134773Y0129751D01*
X0134406Y0130118D01*
X0134039Y0130118D01*
X0134773Y0129017D02*
X0135140Y0128650D01*
X0135507Y0128650D01*
X0135874Y0129017D01*
X0135874Y0129751D01*
X0135507Y0130118D01*
X0135874Y0127908D02*
X0133672Y0126440D01*
X0134039Y0125698D02*
X0134406Y0125698D01*
X0134773Y0125331D01*
X0134773Y0124230D01*
X0134039Y0124230D01*
X0133672Y0124597D01*
X0133672Y0125331D01*
X0134039Y0125698D01*
X0135507Y0124964D02*
X0134773Y0124230D01*
X0135140Y0123488D02*
X0134773Y0123121D01*
X0134773Y0122020D01*
X0134773Y0121278D02*
X0134406Y0120912D01*
X0134406Y0119811D01*
X0133672Y0119811D02*
X0135874Y0119811D01*
X0135874Y0120912D01*
X0135507Y0121278D01*
X0134773Y0121278D01*
X0133672Y0122020D02*
X0135874Y0122020D01*
X0135874Y0123121D01*
X0135507Y0123488D01*
X0135140Y0123488D01*
X0134773Y0123121D02*
X0134406Y0123488D01*
X0134039Y0123488D01*
X0133672Y0123121D01*
X0133672Y0122020D01*
X0135507Y0124964D02*
X0135874Y0125698D01*
X0143672Y0124967D02*
X0145874Y0126435D01*
X0145874Y0127177D02*
X0145140Y0127911D01*
X0145874Y0128645D01*
X0143672Y0128645D01*
X0143672Y0129387D02*
X0143672Y0130121D01*
X0143672Y0129754D02*
X0145874Y0129754D01*
X0145874Y0129387D02*
X0145874Y0130121D01*
X0145507Y0130860D02*
X0145140Y0130860D01*
X0144773Y0131227D01*
X0144773Y0131961D01*
X0144406Y0132328D01*
X0144039Y0132328D01*
X0143672Y0131961D01*
X0143672Y0131227D01*
X0144039Y0130860D01*
X0145507Y0130860D02*
X0145874Y0131227D01*
X0145874Y0131961D01*
X0145507Y0132328D01*
X0145507Y0133070D02*
X0144039Y0133070D01*
X0143672Y0133437D01*
X0143672Y0134171D01*
X0144039Y0134538D01*
X0145507Y0134538D01*
X0145874Y0134171D01*
X0145874Y0133437D01*
X0145507Y0133070D01*
X0145874Y0127177D02*
X0143672Y0127177D01*
X0144039Y0124225D02*
X0143672Y0123858D01*
X0143672Y0123124D01*
X0144039Y0122757D01*
X0144773Y0122757D02*
X0145140Y0123491D01*
X0145140Y0123858D01*
X0144773Y0124225D01*
X0144039Y0124225D01*
X0144773Y0122757D02*
X0145874Y0122757D01*
X0145874Y0124225D01*
X0145507Y0122015D02*
X0145140Y0122015D01*
X0144773Y0121648D01*
X0144773Y0120547D01*
X0144773Y0119805D02*
X0144406Y0119438D01*
X0144406Y0118337D01*
X0143672Y0118337D02*
X0145874Y0118337D01*
X0145874Y0119438D01*
X0145507Y0119805D01*
X0144773Y0119805D01*
X0143672Y0120547D02*
X0145874Y0120547D01*
X0145874Y0121648D01*
X0145507Y0122015D01*
X0144773Y0121648D02*
X0144406Y0122015D01*
X0144039Y0122015D01*
X0143672Y0121648D01*
X0143672Y0120547D01*
X0153672Y0120547D02*
X0153672Y0121648D01*
X0154039Y0122015D01*
X0154406Y0122015D01*
X0154773Y0121648D01*
X0154773Y0120547D01*
X0154773Y0119805D02*
X0154406Y0119438D01*
X0154406Y0118337D01*
X0153672Y0118337D02*
X0155874Y0118337D01*
X0155874Y0119438D01*
X0155507Y0119805D01*
X0154773Y0119805D01*
X0155874Y0120547D02*
X0155874Y0121648D01*
X0155507Y0122015D01*
X0155140Y0122015D01*
X0154773Y0121648D01*
X0154773Y0122757D02*
X0154773Y0124225D01*
X0155874Y0123858D02*
X0154773Y0122757D01*
X0153672Y0123858D02*
X0155874Y0123858D01*
X0153672Y0124967D02*
X0155874Y0126435D01*
X0155874Y0127177D02*
X0155140Y0127911D01*
X0155874Y0128645D01*
X0153672Y0128645D01*
X0154039Y0129387D02*
X0153672Y0129754D01*
X0153672Y0130488D01*
X0154039Y0130855D01*
X0155507Y0130855D01*
X0155874Y0130488D01*
X0155874Y0129754D01*
X0155507Y0129387D01*
X0154039Y0129387D01*
X0154039Y0131597D02*
X0153672Y0131964D01*
X0153672Y0132698D01*
X0154039Y0133065D01*
X0154406Y0133065D01*
X0154773Y0132698D01*
X0154773Y0131964D01*
X0155140Y0131597D01*
X0155507Y0131597D01*
X0155874Y0131964D01*
X0155874Y0132698D01*
X0155507Y0133065D01*
X0155874Y0133806D02*
X0155874Y0134540D01*
X0155874Y0134173D02*
X0153672Y0134173D01*
X0153672Y0133806D02*
X0153672Y0134540D01*
X0163672Y0134171D02*
X0163672Y0133437D01*
X0164039Y0133070D01*
X0164039Y0132328D02*
X0163672Y0131961D01*
X0163672Y0130860D01*
X0165874Y0130860D01*
X0165874Y0131961D01*
X0165507Y0132328D01*
X0165140Y0132328D01*
X0164773Y0131961D01*
X0164773Y0130860D01*
X0164773Y0130118D02*
X0164406Y0129751D01*
X0164406Y0128650D01*
X0163672Y0128650D02*
X0165874Y0128650D01*
X0165874Y0129751D01*
X0165507Y0130118D01*
X0164773Y0130118D01*
X0164773Y0131961D02*
X0164406Y0132328D01*
X0164039Y0132328D01*
X0165507Y0133070D02*
X0165874Y0133437D01*
X0165874Y0134171D01*
X0165507Y0134538D01*
X0165140Y0134538D01*
X0164773Y0134171D01*
X0164406Y0134538D01*
X0164039Y0134538D01*
X0163672Y0134171D01*
X0164773Y0134171D02*
X0164773Y0133804D01*
X0173672Y0134538D02*
X0173672Y0133070D01*
X0175140Y0134538D01*
X0175507Y0134538D01*
X0175874Y0134171D01*
X0175874Y0133437D01*
X0175507Y0133070D01*
X0175507Y0132328D02*
X0175140Y0132328D01*
X0174773Y0131961D01*
X0174773Y0130860D01*
X0174773Y0130118D02*
X0174406Y0129751D01*
X0174406Y0128650D01*
X0173672Y0128650D02*
X0175874Y0128650D01*
X0175874Y0129751D01*
X0175507Y0130118D01*
X0174773Y0130118D01*
X0173672Y0130860D02*
X0175874Y0130860D01*
X0175874Y0131961D01*
X0175507Y0132328D01*
X0174773Y0131961D02*
X0174406Y0132328D01*
X0174039Y0132328D01*
X0173672Y0131961D01*
X0173672Y0130860D01*
X0183672Y0130860D02*
X0183672Y0131961D01*
X0184039Y0132328D01*
X0184406Y0132328D01*
X0184773Y0131961D01*
X0184773Y0130860D01*
X0184773Y0130118D02*
X0184406Y0129751D01*
X0184406Y0128650D01*
X0183672Y0128650D02*
X0185874Y0128650D01*
X0185874Y0129751D01*
X0185507Y0130118D01*
X0184773Y0130118D01*
X0183672Y0130860D02*
X0185874Y0130860D01*
X0185874Y0131961D01*
X0185507Y0132328D01*
X0185140Y0132328D01*
X0184773Y0131961D01*
X0185140Y0133070D02*
X0185874Y0133804D01*
X0183672Y0133804D01*
X0183672Y0133070D02*
X0183672Y0134538D01*
X0193672Y0134171D02*
X0193672Y0133437D01*
X0194039Y0133070D01*
X0195507Y0134538D01*
X0194039Y0134538D01*
X0193672Y0134171D01*
X0194039Y0133070D02*
X0195507Y0133070D01*
X0195874Y0133437D01*
X0195874Y0134171D01*
X0195507Y0134538D01*
X0195507Y0132328D02*
X0195140Y0132328D01*
X0194773Y0131961D01*
X0194773Y0130860D01*
X0194773Y0130118D02*
X0194406Y0129751D01*
X0194406Y0128650D01*
X0193672Y0128650D02*
X0195874Y0128650D01*
X0195874Y0129751D01*
X0195507Y0130118D01*
X0194773Y0130118D01*
X0193672Y0130860D02*
X0195874Y0130860D01*
X0195874Y0131961D01*
X0195507Y0132328D01*
X0194773Y0131961D02*
X0194406Y0132328D01*
X0194039Y0132328D01*
X0193672Y0131961D01*
X0193672Y0130860D01*
X0155874Y0127177D02*
X0153672Y0127177D01*
X0153672Y0120547D02*
X0155874Y0120547D01*
X0155507Y0061167D02*
X0155140Y0061167D01*
X0154773Y0060800D01*
X0154406Y0061167D01*
X0154039Y0061167D01*
X0153672Y0060800D01*
X0153672Y0060067D01*
X0154039Y0059700D01*
X0153672Y0058958D02*
X0155140Y0058958D01*
X0155874Y0058224D01*
X0155140Y0057490D01*
X0153672Y0057490D01*
X0154773Y0057490D02*
X0154773Y0058958D01*
X0155507Y0059700D02*
X0155874Y0060067D01*
X0155874Y0060800D01*
X0155507Y0061167D01*
X0154773Y0060800D02*
X0154773Y0060434D01*
X0154773Y0056748D02*
X0154406Y0056381D01*
X0154406Y0055280D01*
X0153672Y0055280D02*
X0155874Y0055280D01*
X0155874Y0056381D01*
X0155507Y0056748D01*
X0154773Y0056748D01*
X0145874Y0056381D02*
X0145874Y0055280D01*
X0143672Y0055280D01*
X0144406Y0055280D02*
X0144406Y0056381D01*
X0144773Y0056748D01*
X0145507Y0056748D01*
X0145874Y0056381D01*
X0145140Y0057490D02*
X0145874Y0058224D01*
X0145140Y0058958D01*
X0143672Y0058958D01*
X0143672Y0059700D02*
X0145140Y0061167D01*
X0145507Y0061167D01*
X0145874Y0060800D01*
X0145874Y0060067D01*
X0145507Y0059700D01*
X0144773Y0058958D02*
X0144773Y0057490D01*
X0145140Y0057490D02*
X0143672Y0057490D01*
X0143672Y0059700D02*
X0143672Y0061167D01*
X0135874Y0060434D02*
X0133672Y0060434D01*
X0133672Y0061167D02*
X0133672Y0059700D01*
X0133672Y0058958D02*
X0135140Y0058958D01*
X0135874Y0058224D01*
X0135140Y0057490D01*
X0133672Y0057490D01*
X0134773Y0057490D02*
X0134773Y0058958D01*
X0135140Y0059700D02*
X0135874Y0060434D01*
X0135507Y0056748D02*
X0134773Y0056748D01*
X0134406Y0056381D01*
X0134406Y0055280D01*
X0133672Y0055280D02*
X0135874Y0055280D01*
X0135874Y0056381D01*
X0135507Y0056748D01*
X0125874Y0056381D02*
X0125874Y0055280D01*
X0123672Y0055280D01*
X0124406Y0055280D02*
X0124406Y0056381D01*
X0124773Y0056748D01*
X0125507Y0056748D01*
X0125874Y0056381D01*
X0125140Y0057490D02*
X0125874Y0058224D01*
X0125140Y0058958D01*
X0123672Y0058958D01*
X0124039Y0059700D02*
X0125507Y0061167D01*
X0124039Y0061167D01*
X0123672Y0060800D01*
X0123672Y0060067D01*
X0124039Y0059700D01*
X0125507Y0059700D01*
X0125874Y0060067D01*
X0125874Y0060800D01*
X0125507Y0061167D01*
X0124773Y0058958D02*
X0124773Y0057490D01*
X0125140Y0057490D02*
X0123672Y0057490D01*
X0163672Y0057490D02*
X0165140Y0057490D01*
X0165874Y0058224D01*
X0165140Y0058958D01*
X0163672Y0058958D01*
X0164773Y0058958D02*
X0164773Y0057490D01*
X0164773Y0056748D02*
X0164406Y0056381D01*
X0164406Y0055280D01*
X0163672Y0055280D02*
X0165874Y0055280D01*
X0165874Y0056381D01*
X0165507Y0056748D01*
X0164773Y0056748D01*
X0164773Y0059700D02*
X0164773Y0061167D01*
X0165874Y0060800D02*
X0164773Y0059700D01*
X0163672Y0060800D02*
X0165874Y0060800D01*
X0173672Y0060800D02*
X0173672Y0060067D01*
X0174039Y0059700D01*
X0174773Y0059700D02*
X0175140Y0060434D01*
X0175140Y0060800D01*
X0174773Y0061167D01*
X0174039Y0061167D01*
X0173672Y0060800D01*
X0174773Y0059700D02*
X0175874Y0059700D01*
X0175874Y0061167D01*
X0175140Y0058958D02*
X0173672Y0058958D01*
X0174773Y0058958D02*
X0174773Y0057490D01*
X0175140Y0057490D02*
X0175874Y0058224D01*
X0175140Y0058958D01*
X0175140Y0057490D02*
X0173672Y0057490D01*
X0174773Y0056748D02*
X0174406Y0056381D01*
X0174406Y0055280D01*
X0173672Y0055280D02*
X0175874Y0055280D01*
X0175874Y0056381D01*
X0175507Y0056748D01*
X0174773Y0056748D01*
X0183672Y0057490D02*
X0185140Y0057490D01*
X0185874Y0058224D01*
X0185140Y0058958D01*
X0183672Y0058958D01*
X0184039Y0059700D02*
X0183672Y0060067D01*
X0183672Y0060800D01*
X0184039Y0061167D01*
X0184406Y0061167D01*
X0184773Y0060800D01*
X0184773Y0059700D01*
X0184039Y0059700D01*
X0184773Y0059700D02*
X0185507Y0060434D01*
X0185874Y0061167D01*
X0184773Y0058958D02*
X0184773Y0057490D01*
X0184773Y0056748D02*
X0184406Y0056381D01*
X0184406Y0055280D01*
X0183672Y0055280D02*
X0185874Y0055280D01*
X0185874Y0056381D01*
X0185507Y0056748D01*
X0184773Y0056748D01*
X0190623Y0058880D02*
X0190623Y0061082D01*
X0191357Y0061082D02*
X0189889Y0061082D01*
X0189247Y0061480D02*
X0200296Y0061480D01*
X0200196Y0061082D02*
X0199095Y0061082D01*
X0198728Y0060715D01*
X0198728Y0059981D01*
X0199095Y0059614D01*
X0200196Y0059614D01*
X0199462Y0059614D02*
X0198728Y0058880D01*
X0197986Y0058880D02*
X0196519Y0058880D01*
X0195777Y0059247D02*
X0195410Y0058880D01*
X0194676Y0058880D01*
X0194309Y0059247D01*
X0194309Y0059614D01*
X0194676Y0059981D01*
X0195410Y0059981D01*
X0195777Y0060348D01*
X0195777Y0060715D01*
X0195410Y0061082D01*
X0194676Y0061082D01*
X0194309Y0060715D01*
X0193567Y0061082D02*
X0193567Y0058880D01*
X0192099Y0058880D01*
X0192833Y0059981D02*
X0193567Y0059981D01*
X0193567Y0061082D02*
X0192099Y0061082D01*
X0192099Y0057482D02*
X0192099Y0057115D01*
X0193567Y0055647D01*
X0193567Y0055280D01*
X0194309Y0055280D02*
X0194309Y0056748D01*
X0195043Y0057482D01*
X0195777Y0056748D01*
X0195777Y0055280D01*
X0195777Y0056381D02*
X0194309Y0056381D01*
X0193567Y0057482D02*
X0192099Y0057482D01*
X0196519Y0057115D02*
X0196519Y0056381D01*
X0196886Y0056014D01*
X0197986Y0056014D01*
X0197986Y0055280D02*
X0197986Y0057482D01*
X0196886Y0057482D01*
X0196519Y0057115D01*
X0197986Y0058880D02*
X0197986Y0061082D01*
X0196519Y0061082D01*
X0197253Y0059981D02*
X0197986Y0059981D01*
X0200196Y0058880D02*
X0200196Y0061082D01*
D12*
X0198630Y0067581D02*
X0207764Y0067581D01*
X0207764Y0067582D02*
X0207814Y0067584D01*
X0207864Y0067589D01*
X0207913Y0067599D01*
X0207961Y0067612D01*
X0208008Y0067628D01*
X0208054Y0067648D01*
X0208099Y0067672D01*
X0208141Y0067698D01*
X0208181Y0067728D01*
X0208219Y0067761D01*
X0208254Y0067796D01*
X0208287Y0067834D01*
X0208317Y0067874D01*
X0208343Y0067917D01*
X0208367Y0067961D01*
X0208387Y0068007D01*
X0208403Y0068054D01*
X0208416Y0068102D01*
X0208426Y0068151D01*
X0208431Y0068201D01*
X0208433Y0068251D01*
X0208433Y0072109D01*
X0208431Y0072159D01*
X0208426Y0072209D01*
X0208416Y0072258D01*
X0208403Y0072306D01*
X0208387Y0072353D01*
X0208367Y0072399D01*
X0208343Y0072444D01*
X0208317Y0072486D01*
X0208287Y0072526D01*
X0208254Y0072564D01*
X0208219Y0072599D01*
X0208181Y0072632D01*
X0208141Y0072662D01*
X0208099Y0072688D01*
X0208054Y0072712D01*
X0208008Y0072732D01*
X0207961Y0072748D01*
X0207913Y0072761D01*
X0207864Y0072771D01*
X0207814Y0072776D01*
X0207764Y0072778D01*
X0198630Y0072778D01*
X0198580Y0072776D01*
X0198530Y0072771D01*
X0198481Y0072761D01*
X0198433Y0072748D01*
X0198386Y0072732D01*
X0198340Y0072712D01*
X0198296Y0072688D01*
X0198253Y0072662D01*
X0198213Y0072632D01*
X0198175Y0072599D01*
X0198140Y0072564D01*
X0198107Y0072526D01*
X0198077Y0072486D01*
X0198051Y0072444D01*
X0198027Y0072399D01*
X0198007Y0072353D01*
X0197991Y0072306D01*
X0197978Y0072258D01*
X0197968Y0072209D01*
X0197963Y0072159D01*
X0197961Y0072109D01*
X0197961Y0068251D01*
X0197963Y0068201D01*
X0197968Y0068151D01*
X0197978Y0068102D01*
X0197991Y0068054D01*
X0198007Y0068007D01*
X0198027Y0067961D01*
X0198051Y0067917D01*
X0198077Y0067874D01*
X0198107Y0067834D01*
X0198140Y0067796D01*
X0198175Y0067761D01*
X0198213Y0067728D01*
X0198253Y0067698D01*
X0198296Y0067672D01*
X0198340Y0067648D01*
X0198386Y0067628D01*
X0198433Y0067612D01*
X0198481Y0067599D01*
X0198530Y0067589D01*
X0198580Y0067584D01*
X0198630Y0067582D01*
X0197291Y0067148D02*
X0209102Y0067148D01*
X0209102Y0073211D01*
X0197291Y0073211D01*
X0197291Y0067148D01*
X0089399Y0110763D02*
X0089399Y0113232D01*
X0088164Y0114466D01*
X0086930Y0113232D01*
X0086930Y0110763D01*
X0085716Y0111997D02*
X0084481Y0110763D01*
X0083247Y0111997D01*
X0083247Y0114466D01*
X0082033Y0114466D02*
X0080181Y0114466D01*
X0079564Y0113849D01*
X0079564Y0112614D01*
X0080181Y0111997D01*
X0082033Y0111997D01*
X0082033Y0110763D02*
X0082033Y0114466D01*
X0085716Y0114466D02*
X0085716Y0111997D01*
X0086930Y0112614D02*
X0089399Y0112614D01*
X0080798Y0111997D02*
X0079564Y0110763D01*
X0074666Y0110763D02*
X0073432Y0110763D01*
X0074049Y0110763D02*
X0074049Y0114466D01*
X0074666Y0114466D02*
X0073432Y0114466D01*
X0072211Y0113849D02*
X0072211Y0113232D01*
X0071594Y0112614D01*
X0070359Y0112614D01*
X0069742Y0111997D01*
X0069742Y0111380D01*
X0070359Y0110763D01*
X0071594Y0110763D01*
X0072211Y0111380D01*
X0072211Y0113849D02*
X0071594Y0114466D01*
X0070359Y0114466D01*
X0069742Y0113849D01*
X0068528Y0114466D02*
X0066676Y0114466D01*
X0066059Y0113849D01*
X0066059Y0112614D01*
X0066676Y0111997D01*
X0068528Y0111997D01*
X0068528Y0110763D02*
X0068528Y0114466D01*
D13*
X0047094Y0034156D02*
X0212449Y0034156D01*
X0206150Y0049904D02*
X0206152Y0050062D01*
X0206158Y0050220D01*
X0206168Y0050378D01*
X0206182Y0050536D01*
X0206200Y0050693D01*
X0206221Y0050850D01*
X0206247Y0051006D01*
X0206277Y0051162D01*
X0206310Y0051317D01*
X0206348Y0051470D01*
X0206389Y0051623D01*
X0206434Y0051775D01*
X0206483Y0051926D01*
X0206536Y0052075D01*
X0206592Y0052223D01*
X0206652Y0052369D01*
X0206716Y0052514D01*
X0206784Y0052657D01*
X0206855Y0052799D01*
X0206929Y0052939D01*
X0207007Y0053076D01*
X0207089Y0053212D01*
X0207173Y0053346D01*
X0207262Y0053477D01*
X0207353Y0053606D01*
X0207448Y0053733D01*
X0207545Y0053858D01*
X0207646Y0053980D01*
X0207750Y0054099D01*
X0207857Y0054216D01*
X0207967Y0054330D01*
X0208080Y0054441D01*
X0208195Y0054550D01*
X0208313Y0054655D01*
X0208434Y0054757D01*
X0208557Y0054857D01*
X0208683Y0054953D01*
X0208811Y0055046D01*
X0208941Y0055136D01*
X0209074Y0055222D01*
X0209209Y0055306D01*
X0209345Y0055385D01*
X0209484Y0055462D01*
X0209625Y0055534D01*
X0209767Y0055604D01*
X0209911Y0055669D01*
X0210057Y0055731D01*
X0210204Y0055789D01*
X0210353Y0055844D01*
X0210503Y0055895D01*
X0210654Y0055942D01*
X0210806Y0055985D01*
X0210959Y0056024D01*
X0211114Y0056060D01*
X0211269Y0056091D01*
X0211425Y0056119D01*
X0211581Y0056143D01*
X0211738Y0056163D01*
X0211896Y0056179D01*
X0212053Y0056191D01*
X0212212Y0056199D01*
X0212370Y0056203D01*
X0212528Y0056203D01*
X0212686Y0056199D01*
X0212845Y0056191D01*
X0213002Y0056179D01*
X0213160Y0056163D01*
X0213317Y0056143D01*
X0213473Y0056119D01*
X0213629Y0056091D01*
X0213784Y0056060D01*
X0213939Y0056024D01*
X0214092Y0055985D01*
X0214244Y0055942D01*
X0214395Y0055895D01*
X0214545Y0055844D01*
X0214694Y0055789D01*
X0214841Y0055731D01*
X0214987Y0055669D01*
X0215131Y0055604D01*
X0215273Y0055534D01*
X0215414Y0055462D01*
X0215553Y0055385D01*
X0215689Y0055306D01*
X0215824Y0055222D01*
X0215957Y0055136D01*
X0216087Y0055046D01*
X0216215Y0054953D01*
X0216341Y0054857D01*
X0216464Y0054757D01*
X0216585Y0054655D01*
X0216703Y0054550D01*
X0216818Y0054441D01*
X0216931Y0054330D01*
X0217041Y0054216D01*
X0217148Y0054099D01*
X0217252Y0053980D01*
X0217353Y0053858D01*
X0217450Y0053733D01*
X0217545Y0053606D01*
X0217636Y0053477D01*
X0217725Y0053346D01*
X0217809Y0053212D01*
X0217891Y0053076D01*
X0217969Y0052939D01*
X0218043Y0052799D01*
X0218114Y0052657D01*
X0218182Y0052514D01*
X0218246Y0052369D01*
X0218306Y0052223D01*
X0218362Y0052075D01*
X0218415Y0051926D01*
X0218464Y0051775D01*
X0218509Y0051623D01*
X0218550Y0051470D01*
X0218588Y0051317D01*
X0218621Y0051162D01*
X0218651Y0051006D01*
X0218677Y0050850D01*
X0218698Y0050693D01*
X0218716Y0050536D01*
X0218730Y0050378D01*
X0218740Y0050220D01*
X0218746Y0050062D01*
X0218748Y0049904D01*
X0218746Y0049746D01*
X0218740Y0049588D01*
X0218730Y0049430D01*
X0218716Y0049272D01*
X0218698Y0049115D01*
X0218677Y0048958D01*
X0218651Y0048802D01*
X0218621Y0048646D01*
X0218588Y0048491D01*
X0218550Y0048338D01*
X0218509Y0048185D01*
X0218464Y0048033D01*
X0218415Y0047882D01*
X0218362Y0047733D01*
X0218306Y0047585D01*
X0218246Y0047439D01*
X0218182Y0047294D01*
X0218114Y0047151D01*
X0218043Y0047009D01*
X0217969Y0046869D01*
X0217891Y0046732D01*
X0217809Y0046596D01*
X0217725Y0046462D01*
X0217636Y0046331D01*
X0217545Y0046202D01*
X0217450Y0046075D01*
X0217353Y0045950D01*
X0217252Y0045828D01*
X0217148Y0045709D01*
X0217041Y0045592D01*
X0216931Y0045478D01*
X0216818Y0045367D01*
X0216703Y0045258D01*
X0216585Y0045153D01*
X0216464Y0045051D01*
X0216341Y0044951D01*
X0216215Y0044855D01*
X0216087Y0044762D01*
X0215957Y0044672D01*
X0215824Y0044586D01*
X0215689Y0044502D01*
X0215553Y0044423D01*
X0215414Y0044346D01*
X0215273Y0044274D01*
X0215131Y0044204D01*
X0214987Y0044139D01*
X0214841Y0044077D01*
X0214694Y0044019D01*
X0214545Y0043964D01*
X0214395Y0043913D01*
X0214244Y0043866D01*
X0214092Y0043823D01*
X0213939Y0043784D01*
X0213784Y0043748D01*
X0213629Y0043717D01*
X0213473Y0043689D01*
X0213317Y0043665D01*
X0213160Y0043645D01*
X0213002Y0043629D01*
X0212845Y0043617D01*
X0212686Y0043609D01*
X0212528Y0043605D01*
X0212370Y0043605D01*
X0212212Y0043609D01*
X0212053Y0043617D01*
X0211896Y0043629D01*
X0211738Y0043645D01*
X0211581Y0043665D01*
X0211425Y0043689D01*
X0211269Y0043717D01*
X0211114Y0043748D01*
X0210959Y0043784D01*
X0210806Y0043823D01*
X0210654Y0043866D01*
X0210503Y0043913D01*
X0210353Y0043964D01*
X0210204Y0044019D01*
X0210057Y0044077D01*
X0209911Y0044139D01*
X0209767Y0044204D01*
X0209625Y0044274D01*
X0209484Y0044346D01*
X0209345Y0044423D01*
X0209209Y0044502D01*
X0209074Y0044586D01*
X0208941Y0044672D01*
X0208811Y0044762D01*
X0208683Y0044855D01*
X0208557Y0044951D01*
X0208434Y0045051D01*
X0208313Y0045153D01*
X0208195Y0045258D01*
X0208080Y0045367D01*
X0207967Y0045478D01*
X0207857Y0045592D01*
X0207750Y0045709D01*
X0207646Y0045828D01*
X0207545Y0045950D01*
X0207448Y0046075D01*
X0207353Y0046202D01*
X0207262Y0046331D01*
X0207173Y0046462D01*
X0207089Y0046596D01*
X0207007Y0046732D01*
X0206929Y0046869D01*
X0206855Y0047009D01*
X0206784Y0047151D01*
X0206716Y0047294D01*
X0206652Y0047439D01*
X0206592Y0047585D01*
X0206536Y0047733D01*
X0206483Y0047882D01*
X0206434Y0048033D01*
X0206389Y0048185D01*
X0206348Y0048338D01*
X0206310Y0048491D01*
X0206277Y0048646D01*
X0206247Y0048802D01*
X0206221Y0048958D01*
X0206200Y0049115D01*
X0206182Y0049272D01*
X0206168Y0049430D01*
X0206158Y0049588D01*
X0206152Y0049746D01*
X0206150Y0049904D01*
X0212449Y0034156D02*
X0212830Y0034161D01*
X0213210Y0034174D01*
X0213590Y0034197D01*
X0213969Y0034230D01*
X0214347Y0034271D01*
X0214724Y0034321D01*
X0215100Y0034381D01*
X0215475Y0034449D01*
X0215847Y0034527D01*
X0216218Y0034614D01*
X0216586Y0034709D01*
X0216952Y0034814D01*
X0217315Y0034927D01*
X0217676Y0035049D01*
X0218033Y0035179D01*
X0218387Y0035319D01*
X0218738Y0035466D01*
X0219085Y0035623D01*
X0219428Y0035787D01*
X0219767Y0035960D01*
X0220102Y0036141D01*
X0220433Y0036330D01*
X0220758Y0036527D01*
X0221079Y0036731D01*
X0221395Y0036944D01*
X0221705Y0037164D01*
X0222011Y0037391D01*
X0222310Y0037626D01*
X0222604Y0037868D01*
X0222892Y0038116D01*
X0223174Y0038372D01*
X0223449Y0038635D01*
X0223718Y0038904D01*
X0223981Y0039179D01*
X0224237Y0039461D01*
X0224485Y0039749D01*
X0224727Y0040043D01*
X0224962Y0040342D01*
X0225189Y0040648D01*
X0225409Y0040958D01*
X0225622Y0041274D01*
X0225826Y0041595D01*
X0226023Y0041920D01*
X0226212Y0042251D01*
X0226393Y0042586D01*
X0226566Y0042925D01*
X0226730Y0043268D01*
X0226887Y0043615D01*
X0227034Y0043966D01*
X0227174Y0044320D01*
X0227304Y0044677D01*
X0227426Y0045038D01*
X0227539Y0045401D01*
X0227644Y0045767D01*
X0227739Y0046135D01*
X0227826Y0046506D01*
X0227904Y0046878D01*
X0227972Y0047253D01*
X0228032Y0047629D01*
X0228082Y0048006D01*
X0228123Y0048384D01*
X0228156Y0048763D01*
X0228179Y0049143D01*
X0228192Y0049523D01*
X0228197Y0049904D01*
X0228197Y0140455D01*
X0206150Y0140455D02*
X0206152Y0140613D01*
X0206158Y0140771D01*
X0206168Y0140929D01*
X0206182Y0141087D01*
X0206200Y0141244D01*
X0206221Y0141401D01*
X0206247Y0141557D01*
X0206277Y0141713D01*
X0206310Y0141868D01*
X0206348Y0142021D01*
X0206389Y0142174D01*
X0206434Y0142326D01*
X0206483Y0142477D01*
X0206536Y0142626D01*
X0206592Y0142774D01*
X0206652Y0142920D01*
X0206716Y0143065D01*
X0206784Y0143208D01*
X0206855Y0143350D01*
X0206929Y0143490D01*
X0207007Y0143627D01*
X0207089Y0143763D01*
X0207173Y0143897D01*
X0207262Y0144028D01*
X0207353Y0144157D01*
X0207448Y0144284D01*
X0207545Y0144409D01*
X0207646Y0144531D01*
X0207750Y0144650D01*
X0207857Y0144767D01*
X0207967Y0144881D01*
X0208080Y0144992D01*
X0208195Y0145101D01*
X0208313Y0145206D01*
X0208434Y0145308D01*
X0208557Y0145408D01*
X0208683Y0145504D01*
X0208811Y0145597D01*
X0208941Y0145687D01*
X0209074Y0145773D01*
X0209209Y0145857D01*
X0209345Y0145936D01*
X0209484Y0146013D01*
X0209625Y0146085D01*
X0209767Y0146155D01*
X0209911Y0146220D01*
X0210057Y0146282D01*
X0210204Y0146340D01*
X0210353Y0146395D01*
X0210503Y0146446D01*
X0210654Y0146493D01*
X0210806Y0146536D01*
X0210959Y0146575D01*
X0211114Y0146611D01*
X0211269Y0146642D01*
X0211425Y0146670D01*
X0211581Y0146694D01*
X0211738Y0146714D01*
X0211896Y0146730D01*
X0212053Y0146742D01*
X0212212Y0146750D01*
X0212370Y0146754D01*
X0212528Y0146754D01*
X0212686Y0146750D01*
X0212845Y0146742D01*
X0213002Y0146730D01*
X0213160Y0146714D01*
X0213317Y0146694D01*
X0213473Y0146670D01*
X0213629Y0146642D01*
X0213784Y0146611D01*
X0213939Y0146575D01*
X0214092Y0146536D01*
X0214244Y0146493D01*
X0214395Y0146446D01*
X0214545Y0146395D01*
X0214694Y0146340D01*
X0214841Y0146282D01*
X0214987Y0146220D01*
X0215131Y0146155D01*
X0215273Y0146085D01*
X0215414Y0146013D01*
X0215553Y0145936D01*
X0215689Y0145857D01*
X0215824Y0145773D01*
X0215957Y0145687D01*
X0216087Y0145597D01*
X0216215Y0145504D01*
X0216341Y0145408D01*
X0216464Y0145308D01*
X0216585Y0145206D01*
X0216703Y0145101D01*
X0216818Y0144992D01*
X0216931Y0144881D01*
X0217041Y0144767D01*
X0217148Y0144650D01*
X0217252Y0144531D01*
X0217353Y0144409D01*
X0217450Y0144284D01*
X0217545Y0144157D01*
X0217636Y0144028D01*
X0217725Y0143897D01*
X0217809Y0143763D01*
X0217891Y0143627D01*
X0217969Y0143490D01*
X0218043Y0143350D01*
X0218114Y0143208D01*
X0218182Y0143065D01*
X0218246Y0142920D01*
X0218306Y0142774D01*
X0218362Y0142626D01*
X0218415Y0142477D01*
X0218464Y0142326D01*
X0218509Y0142174D01*
X0218550Y0142021D01*
X0218588Y0141868D01*
X0218621Y0141713D01*
X0218651Y0141557D01*
X0218677Y0141401D01*
X0218698Y0141244D01*
X0218716Y0141087D01*
X0218730Y0140929D01*
X0218740Y0140771D01*
X0218746Y0140613D01*
X0218748Y0140455D01*
X0218746Y0140297D01*
X0218740Y0140139D01*
X0218730Y0139981D01*
X0218716Y0139823D01*
X0218698Y0139666D01*
X0218677Y0139509D01*
X0218651Y0139353D01*
X0218621Y0139197D01*
X0218588Y0139042D01*
X0218550Y0138889D01*
X0218509Y0138736D01*
X0218464Y0138584D01*
X0218415Y0138433D01*
X0218362Y0138284D01*
X0218306Y0138136D01*
X0218246Y0137990D01*
X0218182Y0137845D01*
X0218114Y0137702D01*
X0218043Y0137560D01*
X0217969Y0137420D01*
X0217891Y0137283D01*
X0217809Y0137147D01*
X0217725Y0137013D01*
X0217636Y0136882D01*
X0217545Y0136753D01*
X0217450Y0136626D01*
X0217353Y0136501D01*
X0217252Y0136379D01*
X0217148Y0136260D01*
X0217041Y0136143D01*
X0216931Y0136029D01*
X0216818Y0135918D01*
X0216703Y0135809D01*
X0216585Y0135704D01*
X0216464Y0135602D01*
X0216341Y0135502D01*
X0216215Y0135406D01*
X0216087Y0135313D01*
X0215957Y0135223D01*
X0215824Y0135137D01*
X0215689Y0135053D01*
X0215553Y0134974D01*
X0215414Y0134897D01*
X0215273Y0134825D01*
X0215131Y0134755D01*
X0214987Y0134690D01*
X0214841Y0134628D01*
X0214694Y0134570D01*
X0214545Y0134515D01*
X0214395Y0134464D01*
X0214244Y0134417D01*
X0214092Y0134374D01*
X0213939Y0134335D01*
X0213784Y0134299D01*
X0213629Y0134268D01*
X0213473Y0134240D01*
X0213317Y0134216D01*
X0213160Y0134196D01*
X0213002Y0134180D01*
X0212845Y0134168D01*
X0212686Y0134160D01*
X0212528Y0134156D01*
X0212370Y0134156D01*
X0212212Y0134160D01*
X0212053Y0134168D01*
X0211896Y0134180D01*
X0211738Y0134196D01*
X0211581Y0134216D01*
X0211425Y0134240D01*
X0211269Y0134268D01*
X0211114Y0134299D01*
X0210959Y0134335D01*
X0210806Y0134374D01*
X0210654Y0134417D01*
X0210503Y0134464D01*
X0210353Y0134515D01*
X0210204Y0134570D01*
X0210057Y0134628D01*
X0209911Y0134690D01*
X0209767Y0134755D01*
X0209625Y0134825D01*
X0209484Y0134897D01*
X0209345Y0134974D01*
X0209209Y0135053D01*
X0209074Y0135137D01*
X0208941Y0135223D01*
X0208811Y0135313D01*
X0208683Y0135406D01*
X0208557Y0135502D01*
X0208434Y0135602D01*
X0208313Y0135704D01*
X0208195Y0135809D01*
X0208080Y0135918D01*
X0207967Y0136029D01*
X0207857Y0136143D01*
X0207750Y0136260D01*
X0207646Y0136379D01*
X0207545Y0136501D01*
X0207448Y0136626D01*
X0207353Y0136753D01*
X0207262Y0136882D01*
X0207173Y0137013D01*
X0207089Y0137147D01*
X0207007Y0137283D01*
X0206929Y0137420D01*
X0206855Y0137560D01*
X0206784Y0137702D01*
X0206716Y0137845D01*
X0206652Y0137990D01*
X0206592Y0138136D01*
X0206536Y0138284D01*
X0206483Y0138433D01*
X0206434Y0138584D01*
X0206389Y0138736D01*
X0206348Y0138889D01*
X0206310Y0139042D01*
X0206277Y0139197D01*
X0206247Y0139353D01*
X0206221Y0139509D01*
X0206200Y0139666D01*
X0206182Y0139823D01*
X0206168Y0139981D01*
X0206158Y0140139D01*
X0206152Y0140297D01*
X0206150Y0140455D01*
X0212449Y0156203D02*
X0212830Y0156198D01*
X0213210Y0156185D01*
X0213590Y0156162D01*
X0213969Y0156129D01*
X0214347Y0156088D01*
X0214724Y0156038D01*
X0215100Y0155978D01*
X0215475Y0155910D01*
X0215847Y0155832D01*
X0216218Y0155745D01*
X0216586Y0155650D01*
X0216952Y0155545D01*
X0217315Y0155432D01*
X0217676Y0155310D01*
X0218033Y0155180D01*
X0218387Y0155040D01*
X0218738Y0154893D01*
X0219085Y0154736D01*
X0219428Y0154572D01*
X0219767Y0154399D01*
X0220102Y0154218D01*
X0220433Y0154029D01*
X0220758Y0153832D01*
X0221079Y0153628D01*
X0221395Y0153415D01*
X0221705Y0153195D01*
X0222011Y0152968D01*
X0222310Y0152733D01*
X0222604Y0152491D01*
X0222892Y0152243D01*
X0223174Y0151987D01*
X0223449Y0151724D01*
X0223718Y0151455D01*
X0223981Y0151180D01*
X0224237Y0150898D01*
X0224485Y0150610D01*
X0224727Y0150316D01*
X0224962Y0150017D01*
X0225189Y0149711D01*
X0225409Y0149401D01*
X0225622Y0149085D01*
X0225826Y0148764D01*
X0226023Y0148439D01*
X0226212Y0148108D01*
X0226393Y0147773D01*
X0226566Y0147434D01*
X0226730Y0147091D01*
X0226887Y0146744D01*
X0227034Y0146393D01*
X0227174Y0146039D01*
X0227304Y0145682D01*
X0227426Y0145321D01*
X0227539Y0144958D01*
X0227644Y0144592D01*
X0227739Y0144224D01*
X0227826Y0143853D01*
X0227904Y0143481D01*
X0227972Y0143106D01*
X0228032Y0142730D01*
X0228082Y0142353D01*
X0228123Y0141975D01*
X0228156Y0141596D01*
X0228179Y0141216D01*
X0228192Y0140836D01*
X0228197Y0140455D01*
X0212449Y0156203D02*
X0047094Y0156203D01*
X0040795Y0140455D02*
X0040797Y0140613D01*
X0040803Y0140771D01*
X0040813Y0140929D01*
X0040827Y0141087D01*
X0040845Y0141244D01*
X0040866Y0141401D01*
X0040892Y0141557D01*
X0040922Y0141713D01*
X0040955Y0141868D01*
X0040993Y0142021D01*
X0041034Y0142174D01*
X0041079Y0142326D01*
X0041128Y0142477D01*
X0041181Y0142626D01*
X0041237Y0142774D01*
X0041297Y0142920D01*
X0041361Y0143065D01*
X0041429Y0143208D01*
X0041500Y0143350D01*
X0041574Y0143490D01*
X0041652Y0143627D01*
X0041734Y0143763D01*
X0041818Y0143897D01*
X0041907Y0144028D01*
X0041998Y0144157D01*
X0042093Y0144284D01*
X0042190Y0144409D01*
X0042291Y0144531D01*
X0042395Y0144650D01*
X0042502Y0144767D01*
X0042612Y0144881D01*
X0042725Y0144992D01*
X0042840Y0145101D01*
X0042958Y0145206D01*
X0043079Y0145308D01*
X0043202Y0145408D01*
X0043328Y0145504D01*
X0043456Y0145597D01*
X0043586Y0145687D01*
X0043719Y0145773D01*
X0043854Y0145857D01*
X0043990Y0145936D01*
X0044129Y0146013D01*
X0044270Y0146085D01*
X0044412Y0146155D01*
X0044556Y0146220D01*
X0044702Y0146282D01*
X0044849Y0146340D01*
X0044998Y0146395D01*
X0045148Y0146446D01*
X0045299Y0146493D01*
X0045451Y0146536D01*
X0045604Y0146575D01*
X0045759Y0146611D01*
X0045914Y0146642D01*
X0046070Y0146670D01*
X0046226Y0146694D01*
X0046383Y0146714D01*
X0046541Y0146730D01*
X0046698Y0146742D01*
X0046857Y0146750D01*
X0047015Y0146754D01*
X0047173Y0146754D01*
X0047331Y0146750D01*
X0047490Y0146742D01*
X0047647Y0146730D01*
X0047805Y0146714D01*
X0047962Y0146694D01*
X0048118Y0146670D01*
X0048274Y0146642D01*
X0048429Y0146611D01*
X0048584Y0146575D01*
X0048737Y0146536D01*
X0048889Y0146493D01*
X0049040Y0146446D01*
X0049190Y0146395D01*
X0049339Y0146340D01*
X0049486Y0146282D01*
X0049632Y0146220D01*
X0049776Y0146155D01*
X0049918Y0146085D01*
X0050059Y0146013D01*
X0050198Y0145936D01*
X0050334Y0145857D01*
X0050469Y0145773D01*
X0050602Y0145687D01*
X0050732Y0145597D01*
X0050860Y0145504D01*
X0050986Y0145408D01*
X0051109Y0145308D01*
X0051230Y0145206D01*
X0051348Y0145101D01*
X0051463Y0144992D01*
X0051576Y0144881D01*
X0051686Y0144767D01*
X0051793Y0144650D01*
X0051897Y0144531D01*
X0051998Y0144409D01*
X0052095Y0144284D01*
X0052190Y0144157D01*
X0052281Y0144028D01*
X0052370Y0143897D01*
X0052454Y0143763D01*
X0052536Y0143627D01*
X0052614Y0143490D01*
X0052688Y0143350D01*
X0052759Y0143208D01*
X0052827Y0143065D01*
X0052891Y0142920D01*
X0052951Y0142774D01*
X0053007Y0142626D01*
X0053060Y0142477D01*
X0053109Y0142326D01*
X0053154Y0142174D01*
X0053195Y0142021D01*
X0053233Y0141868D01*
X0053266Y0141713D01*
X0053296Y0141557D01*
X0053322Y0141401D01*
X0053343Y0141244D01*
X0053361Y0141087D01*
X0053375Y0140929D01*
X0053385Y0140771D01*
X0053391Y0140613D01*
X0053393Y0140455D01*
X0053391Y0140297D01*
X0053385Y0140139D01*
X0053375Y0139981D01*
X0053361Y0139823D01*
X0053343Y0139666D01*
X0053322Y0139509D01*
X0053296Y0139353D01*
X0053266Y0139197D01*
X0053233Y0139042D01*
X0053195Y0138889D01*
X0053154Y0138736D01*
X0053109Y0138584D01*
X0053060Y0138433D01*
X0053007Y0138284D01*
X0052951Y0138136D01*
X0052891Y0137990D01*
X0052827Y0137845D01*
X0052759Y0137702D01*
X0052688Y0137560D01*
X0052614Y0137420D01*
X0052536Y0137283D01*
X0052454Y0137147D01*
X0052370Y0137013D01*
X0052281Y0136882D01*
X0052190Y0136753D01*
X0052095Y0136626D01*
X0051998Y0136501D01*
X0051897Y0136379D01*
X0051793Y0136260D01*
X0051686Y0136143D01*
X0051576Y0136029D01*
X0051463Y0135918D01*
X0051348Y0135809D01*
X0051230Y0135704D01*
X0051109Y0135602D01*
X0050986Y0135502D01*
X0050860Y0135406D01*
X0050732Y0135313D01*
X0050602Y0135223D01*
X0050469Y0135137D01*
X0050334Y0135053D01*
X0050198Y0134974D01*
X0050059Y0134897D01*
X0049918Y0134825D01*
X0049776Y0134755D01*
X0049632Y0134690D01*
X0049486Y0134628D01*
X0049339Y0134570D01*
X0049190Y0134515D01*
X0049040Y0134464D01*
X0048889Y0134417D01*
X0048737Y0134374D01*
X0048584Y0134335D01*
X0048429Y0134299D01*
X0048274Y0134268D01*
X0048118Y0134240D01*
X0047962Y0134216D01*
X0047805Y0134196D01*
X0047647Y0134180D01*
X0047490Y0134168D01*
X0047331Y0134160D01*
X0047173Y0134156D01*
X0047015Y0134156D01*
X0046857Y0134160D01*
X0046698Y0134168D01*
X0046541Y0134180D01*
X0046383Y0134196D01*
X0046226Y0134216D01*
X0046070Y0134240D01*
X0045914Y0134268D01*
X0045759Y0134299D01*
X0045604Y0134335D01*
X0045451Y0134374D01*
X0045299Y0134417D01*
X0045148Y0134464D01*
X0044998Y0134515D01*
X0044849Y0134570D01*
X0044702Y0134628D01*
X0044556Y0134690D01*
X0044412Y0134755D01*
X0044270Y0134825D01*
X0044129Y0134897D01*
X0043990Y0134974D01*
X0043854Y0135053D01*
X0043719Y0135137D01*
X0043586Y0135223D01*
X0043456Y0135313D01*
X0043328Y0135406D01*
X0043202Y0135502D01*
X0043079Y0135602D01*
X0042958Y0135704D01*
X0042840Y0135809D01*
X0042725Y0135918D01*
X0042612Y0136029D01*
X0042502Y0136143D01*
X0042395Y0136260D01*
X0042291Y0136379D01*
X0042190Y0136501D01*
X0042093Y0136626D01*
X0041998Y0136753D01*
X0041907Y0136882D01*
X0041818Y0137013D01*
X0041734Y0137147D01*
X0041652Y0137283D01*
X0041574Y0137420D01*
X0041500Y0137560D01*
X0041429Y0137702D01*
X0041361Y0137845D01*
X0041297Y0137990D01*
X0041237Y0138136D01*
X0041181Y0138284D01*
X0041128Y0138433D01*
X0041079Y0138584D01*
X0041034Y0138736D01*
X0040993Y0138889D01*
X0040955Y0139042D01*
X0040922Y0139197D01*
X0040892Y0139353D01*
X0040866Y0139509D01*
X0040845Y0139666D01*
X0040827Y0139823D01*
X0040813Y0139981D01*
X0040803Y0140139D01*
X0040797Y0140297D01*
X0040795Y0140455D01*
X0031346Y0140455D02*
X0031351Y0140836D01*
X0031364Y0141216D01*
X0031387Y0141596D01*
X0031420Y0141975D01*
X0031461Y0142353D01*
X0031511Y0142730D01*
X0031571Y0143106D01*
X0031639Y0143481D01*
X0031717Y0143853D01*
X0031804Y0144224D01*
X0031899Y0144592D01*
X0032004Y0144958D01*
X0032117Y0145321D01*
X0032239Y0145682D01*
X0032369Y0146039D01*
X0032509Y0146393D01*
X0032656Y0146744D01*
X0032813Y0147091D01*
X0032977Y0147434D01*
X0033150Y0147773D01*
X0033331Y0148108D01*
X0033520Y0148439D01*
X0033717Y0148764D01*
X0033921Y0149085D01*
X0034134Y0149401D01*
X0034354Y0149711D01*
X0034581Y0150017D01*
X0034816Y0150316D01*
X0035058Y0150610D01*
X0035306Y0150898D01*
X0035562Y0151180D01*
X0035825Y0151455D01*
X0036094Y0151724D01*
X0036369Y0151987D01*
X0036651Y0152243D01*
X0036939Y0152491D01*
X0037233Y0152733D01*
X0037532Y0152968D01*
X0037838Y0153195D01*
X0038148Y0153415D01*
X0038464Y0153628D01*
X0038785Y0153832D01*
X0039110Y0154029D01*
X0039441Y0154218D01*
X0039776Y0154399D01*
X0040115Y0154572D01*
X0040458Y0154736D01*
X0040805Y0154893D01*
X0041156Y0155040D01*
X0041510Y0155180D01*
X0041867Y0155310D01*
X0042228Y0155432D01*
X0042591Y0155545D01*
X0042957Y0155650D01*
X0043325Y0155745D01*
X0043696Y0155832D01*
X0044068Y0155910D01*
X0044443Y0155978D01*
X0044819Y0156038D01*
X0045196Y0156088D01*
X0045574Y0156129D01*
X0045953Y0156162D01*
X0046333Y0156185D01*
X0046713Y0156198D01*
X0047094Y0156203D01*
X0031346Y0140455D02*
X0031346Y0049904D01*
X0040795Y0049904D02*
X0040797Y0050062D01*
X0040803Y0050220D01*
X0040813Y0050378D01*
X0040827Y0050536D01*
X0040845Y0050693D01*
X0040866Y0050850D01*
X0040892Y0051006D01*
X0040922Y0051162D01*
X0040955Y0051317D01*
X0040993Y0051470D01*
X0041034Y0051623D01*
X0041079Y0051775D01*
X0041128Y0051926D01*
X0041181Y0052075D01*
X0041237Y0052223D01*
X0041297Y0052369D01*
X0041361Y0052514D01*
X0041429Y0052657D01*
X0041500Y0052799D01*
X0041574Y0052939D01*
X0041652Y0053076D01*
X0041734Y0053212D01*
X0041818Y0053346D01*
X0041907Y0053477D01*
X0041998Y0053606D01*
X0042093Y0053733D01*
X0042190Y0053858D01*
X0042291Y0053980D01*
X0042395Y0054099D01*
X0042502Y0054216D01*
X0042612Y0054330D01*
X0042725Y0054441D01*
X0042840Y0054550D01*
X0042958Y0054655D01*
X0043079Y0054757D01*
X0043202Y0054857D01*
X0043328Y0054953D01*
X0043456Y0055046D01*
X0043586Y0055136D01*
X0043719Y0055222D01*
X0043854Y0055306D01*
X0043990Y0055385D01*
X0044129Y0055462D01*
X0044270Y0055534D01*
X0044412Y0055604D01*
X0044556Y0055669D01*
X0044702Y0055731D01*
X0044849Y0055789D01*
X0044998Y0055844D01*
X0045148Y0055895D01*
X0045299Y0055942D01*
X0045451Y0055985D01*
X0045604Y0056024D01*
X0045759Y0056060D01*
X0045914Y0056091D01*
X0046070Y0056119D01*
X0046226Y0056143D01*
X0046383Y0056163D01*
X0046541Y0056179D01*
X0046698Y0056191D01*
X0046857Y0056199D01*
X0047015Y0056203D01*
X0047173Y0056203D01*
X0047331Y0056199D01*
X0047490Y0056191D01*
X0047647Y0056179D01*
X0047805Y0056163D01*
X0047962Y0056143D01*
X0048118Y0056119D01*
X0048274Y0056091D01*
X0048429Y0056060D01*
X0048584Y0056024D01*
X0048737Y0055985D01*
X0048889Y0055942D01*
X0049040Y0055895D01*
X0049190Y0055844D01*
X0049339Y0055789D01*
X0049486Y0055731D01*
X0049632Y0055669D01*
X0049776Y0055604D01*
X0049918Y0055534D01*
X0050059Y0055462D01*
X0050198Y0055385D01*
X0050334Y0055306D01*
X0050469Y0055222D01*
X0050602Y0055136D01*
X0050732Y0055046D01*
X0050860Y0054953D01*
X0050986Y0054857D01*
X0051109Y0054757D01*
X0051230Y0054655D01*
X0051348Y0054550D01*
X0051463Y0054441D01*
X0051576Y0054330D01*
X0051686Y0054216D01*
X0051793Y0054099D01*
X0051897Y0053980D01*
X0051998Y0053858D01*
X0052095Y0053733D01*
X0052190Y0053606D01*
X0052281Y0053477D01*
X0052370Y0053346D01*
X0052454Y0053212D01*
X0052536Y0053076D01*
X0052614Y0052939D01*
X0052688Y0052799D01*
X0052759Y0052657D01*
X0052827Y0052514D01*
X0052891Y0052369D01*
X0052951Y0052223D01*
X0053007Y0052075D01*
X0053060Y0051926D01*
X0053109Y0051775D01*
X0053154Y0051623D01*
X0053195Y0051470D01*
X0053233Y0051317D01*
X0053266Y0051162D01*
X0053296Y0051006D01*
X0053322Y0050850D01*
X0053343Y0050693D01*
X0053361Y0050536D01*
X0053375Y0050378D01*
X0053385Y0050220D01*
X0053391Y0050062D01*
X0053393Y0049904D01*
X0053391Y0049746D01*
X0053385Y0049588D01*
X0053375Y0049430D01*
X0053361Y0049272D01*
X0053343Y0049115D01*
X0053322Y0048958D01*
X0053296Y0048802D01*
X0053266Y0048646D01*
X0053233Y0048491D01*
X0053195Y0048338D01*
X0053154Y0048185D01*
X0053109Y0048033D01*
X0053060Y0047882D01*
X0053007Y0047733D01*
X0052951Y0047585D01*
X0052891Y0047439D01*
X0052827Y0047294D01*
X0052759Y0047151D01*
X0052688Y0047009D01*
X0052614Y0046869D01*
X0052536Y0046732D01*
X0052454Y0046596D01*
X0052370Y0046462D01*
X0052281Y0046331D01*
X0052190Y0046202D01*
X0052095Y0046075D01*
X0051998Y0045950D01*
X0051897Y0045828D01*
X0051793Y0045709D01*
X0051686Y0045592D01*
X0051576Y0045478D01*
X0051463Y0045367D01*
X0051348Y0045258D01*
X0051230Y0045153D01*
X0051109Y0045051D01*
X0050986Y0044951D01*
X0050860Y0044855D01*
X0050732Y0044762D01*
X0050602Y0044672D01*
X0050469Y0044586D01*
X0050334Y0044502D01*
X0050198Y0044423D01*
X0050059Y0044346D01*
X0049918Y0044274D01*
X0049776Y0044204D01*
X0049632Y0044139D01*
X0049486Y0044077D01*
X0049339Y0044019D01*
X0049190Y0043964D01*
X0049040Y0043913D01*
X0048889Y0043866D01*
X0048737Y0043823D01*
X0048584Y0043784D01*
X0048429Y0043748D01*
X0048274Y0043717D01*
X0048118Y0043689D01*
X0047962Y0043665D01*
X0047805Y0043645D01*
X0047647Y0043629D01*
X0047490Y0043617D01*
X0047331Y0043609D01*
X0047173Y0043605D01*
X0047015Y0043605D01*
X0046857Y0043609D01*
X0046698Y0043617D01*
X0046541Y0043629D01*
X0046383Y0043645D01*
X0046226Y0043665D01*
X0046070Y0043689D01*
X0045914Y0043717D01*
X0045759Y0043748D01*
X0045604Y0043784D01*
X0045451Y0043823D01*
X0045299Y0043866D01*
X0045148Y0043913D01*
X0044998Y0043964D01*
X0044849Y0044019D01*
X0044702Y0044077D01*
X0044556Y0044139D01*
X0044412Y0044204D01*
X0044270Y0044274D01*
X0044129Y0044346D01*
X0043990Y0044423D01*
X0043854Y0044502D01*
X0043719Y0044586D01*
X0043586Y0044672D01*
X0043456Y0044762D01*
X0043328Y0044855D01*
X0043202Y0044951D01*
X0043079Y0045051D01*
X0042958Y0045153D01*
X0042840Y0045258D01*
X0042725Y0045367D01*
X0042612Y0045478D01*
X0042502Y0045592D01*
X0042395Y0045709D01*
X0042291Y0045828D01*
X0042190Y0045950D01*
X0042093Y0046075D01*
X0041998Y0046202D01*
X0041907Y0046331D01*
X0041818Y0046462D01*
X0041734Y0046596D01*
X0041652Y0046732D01*
X0041574Y0046869D01*
X0041500Y0047009D01*
X0041429Y0047151D01*
X0041361Y0047294D01*
X0041297Y0047439D01*
X0041237Y0047585D01*
X0041181Y0047733D01*
X0041128Y0047882D01*
X0041079Y0048033D01*
X0041034Y0048185D01*
X0040993Y0048338D01*
X0040955Y0048491D01*
X0040922Y0048646D01*
X0040892Y0048802D01*
X0040866Y0048958D01*
X0040845Y0049115D01*
X0040827Y0049272D01*
X0040813Y0049430D01*
X0040803Y0049588D01*
X0040797Y0049746D01*
X0040795Y0049904D01*
X0031346Y0049904D02*
X0031351Y0049523D01*
X0031364Y0049143D01*
X0031387Y0048763D01*
X0031420Y0048384D01*
X0031461Y0048006D01*
X0031511Y0047629D01*
X0031571Y0047253D01*
X0031639Y0046878D01*
X0031717Y0046506D01*
X0031804Y0046135D01*
X0031899Y0045767D01*
X0032004Y0045401D01*
X0032117Y0045038D01*
X0032239Y0044677D01*
X0032369Y0044320D01*
X0032509Y0043966D01*
X0032656Y0043615D01*
X0032813Y0043268D01*
X0032977Y0042925D01*
X0033150Y0042586D01*
X0033331Y0042251D01*
X0033520Y0041920D01*
X0033717Y0041595D01*
X0033921Y0041274D01*
X0034134Y0040958D01*
X0034354Y0040648D01*
X0034581Y0040342D01*
X0034816Y0040043D01*
X0035058Y0039749D01*
X0035306Y0039461D01*
X0035562Y0039179D01*
X0035825Y0038904D01*
X0036094Y0038635D01*
X0036369Y0038372D01*
X0036651Y0038116D01*
X0036939Y0037868D01*
X0037233Y0037626D01*
X0037532Y0037391D01*
X0037838Y0037164D01*
X0038148Y0036944D01*
X0038464Y0036731D01*
X0038785Y0036527D01*
X0039110Y0036330D01*
X0039441Y0036141D01*
X0039776Y0035960D01*
X0040115Y0035787D01*
X0040458Y0035623D01*
X0040805Y0035466D01*
X0041156Y0035319D01*
X0041510Y0035179D01*
X0041867Y0035049D01*
X0042228Y0034927D01*
X0042591Y0034814D01*
X0042957Y0034709D01*
X0043325Y0034614D01*
X0043696Y0034527D01*
X0044068Y0034449D01*
X0044443Y0034381D01*
X0044819Y0034321D01*
X0045196Y0034271D01*
X0045574Y0034230D01*
X0045953Y0034197D01*
X0046333Y0034174D01*
X0046713Y0034161D01*
X0047094Y0034156D01*
D14*
X0160571Y0038393D02*
X0163506Y0038393D01*
X0162038Y0038393D02*
X0162038Y0042797D01*
X0163506Y0041329D01*
X0165174Y0041329D02*
X0166642Y0038393D01*
X0168110Y0041329D01*
X0169778Y0037659D02*
X0172714Y0037659D01*
X0174382Y0038393D02*
X0177318Y0038393D01*
X0175850Y0038393D02*
X0175850Y0042797D01*
X0177318Y0041329D01*
X0178986Y0041329D02*
X0179720Y0040595D01*
X0178986Y0039861D01*
X0178986Y0039127D01*
X0179720Y0038393D01*
X0181188Y0038393D01*
X0181922Y0039127D01*
X0183590Y0039127D02*
X0184324Y0038393D01*
X0185792Y0038393D01*
X0186526Y0039127D01*
X0183590Y0042063D01*
X0183590Y0039127D01*
X0183590Y0042063D02*
X0184324Y0042797D01*
X0185792Y0042797D01*
X0186526Y0042063D01*
X0186526Y0039127D01*
X0188194Y0039127D02*
X0188928Y0038393D01*
X0190396Y0038393D01*
X0191130Y0039127D01*
X0191130Y0040595D02*
X0189662Y0041329D01*
X0188928Y0041329D01*
X0188194Y0040595D01*
X0188194Y0039127D01*
X0191130Y0040595D02*
X0191130Y0042797D01*
X0188194Y0042797D01*
X0192798Y0042063D02*
X0192798Y0040595D01*
X0193532Y0039861D01*
X0195734Y0039861D01*
X0195734Y0038393D02*
X0195734Y0042797D01*
X0193532Y0042797D01*
X0192798Y0042063D01*
X0197402Y0042063D02*
X0197402Y0039127D01*
X0198136Y0038393D01*
X0200338Y0038393D01*
X0200338Y0042797D01*
X0198136Y0042797D01*
X0197402Y0042063D01*
X0181922Y0042063D02*
X0181188Y0042797D01*
X0179720Y0042797D01*
X0178986Y0042063D01*
X0178986Y0041329D01*
X0179720Y0040595D02*
X0180454Y0040595D01*
X0193354Y0063093D02*
X0213039Y0063093D01*
X0213039Y0065062D01*
X0213039Y0067030D01*
X0213039Y0068211D01*
X0214024Y0068211D01*
X0214024Y0072148D01*
X0213039Y0072148D01*
X0213039Y0073329D01*
X0213039Y0075298D01*
X0213039Y0077266D01*
X0193354Y0077266D01*
X0193354Y0075298D01*
X0193354Y0073329D01*
X0193354Y0072148D01*
X0192370Y0072148D01*
X0192370Y0068211D01*
X0193354Y0068211D01*
X0193354Y0067030D01*
X0193354Y0065062D01*
X0193354Y0063093D01*
X0195874Y0064274D02*
X0210520Y0064274D01*
X0210592Y0064276D01*
X0210665Y0064282D01*
X0210737Y0064292D01*
X0210808Y0064305D01*
X0210878Y0064323D01*
X0210948Y0064344D01*
X0211016Y0064369D01*
X0211082Y0064398D01*
X0211147Y0064430D01*
X0211210Y0064466D01*
X0211271Y0064505D01*
X0211330Y0064547D01*
X0211387Y0064592D01*
X0211441Y0064641D01*
X0211492Y0064692D01*
X0211541Y0064746D01*
X0211586Y0064803D01*
X0211628Y0064862D01*
X0211667Y0064923D01*
X0211703Y0064986D01*
X0211735Y0065051D01*
X0211764Y0065117D01*
X0211789Y0065185D01*
X0211810Y0065255D01*
X0211828Y0065325D01*
X0211841Y0065396D01*
X0211851Y0065468D01*
X0211857Y0065541D01*
X0211859Y0065613D01*
X0211858Y0065613D02*
X0211858Y0074747D01*
X0211859Y0074747D02*
X0211857Y0074819D01*
X0211851Y0074892D01*
X0211841Y0074964D01*
X0211828Y0075035D01*
X0211810Y0075105D01*
X0211789Y0075175D01*
X0211764Y0075243D01*
X0211735Y0075309D01*
X0211703Y0075374D01*
X0211667Y0075437D01*
X0211628Y0075498D01*
X0211586Y0075557D01*
X0211541Y0075614D01*
X0211492Y0075668D01*
X0211441Y0075719D01*
X0211387Y0075768D01*
X0211330Y0075813D01*
X0211271Y0075855D01*
X0211210Y0075894D01*
X0211147Y0075930D01*
X0211082Y0075962D01*
X0211016Y0075991D01*
X0210948Y0076016D01*
X0210878Y0076037D01*
X0210808Y0076055D01*
X0210737Y0076068D01*
X0210665Y0076078D01*
X0210592Y0076084D01*
X0210520Y0076086D01*
X0210520Y0076085D02*
X0195874Y0076085D01*
X0195874Y0076086D02*
X0195802Y0076084D01*
X0195729Y0076078D01*
X0195657Y0076068D01*
X0195586Y0076055D01*
X0195516Y0076037D01*
X0195446Y0076016D01*
X0195378Y0075991D01*
X0195312Y0075962D01*
X0195247Y0075930D01*
X0195184Y0075894D01*
X0195123Y0075855D01*
X0195064Y0075813D01*
X0195007Y0075768D01*
X0194953Y0075719D01*
X0194902Y0075668D01*
X0194853Y0075614D01*
X0194808Y0075557D01*
X0194766Y0075498D01*
X0194727Y0075437D01*
X0194691Y0075374D01*
X0194659Y0075309D01*
X0194630Y0075243D01*
X0194605Y0075175D01*
X0194584Y0075105D01*
X0194566Y0075035D01*
X0194553Y0074964D01*
X0194543Y0074892D01*
X0194537Y0074819D01*
X0194535Y0074747D01*
X0194535Y0065613D01*
X0194537Y0065541D01*
X0194543Y0065468D01*
X0194553Y0065396D01*
X0194566Y0065325D01*
X0194584Y0065255D01*
X0194605Y0065185D01*
X0194630Y0065117D01*
X0194659Y0065051D01*
X0194691Y0064986D01*
X0194727Y0064923D01*
X0194766Y0064862D01*
X0194808Y0064803D01*
X0194853Y0064746D01*
X0194902Y0064692D01*
X0194953Y0064641D01*
X0195007Y0064592D01*
X0195064Y0064547D01*
X0195123Y0064505D01*
X0195184Y0064466D01*
X0195247Y0064430D01*
X0195312Y0064398D01*
X0195378Y0064369D01*
X0195446Y0064344D01*
X0195516Y0064323D01*
X0195586Y0064305D01*
X0195657Y0064292D01*
X0195729Y0064282D01*
X0195802Y0064276D01*
X0195874Y0064274D01*
X0193354Y0068211D02*
X0193354Y0072148D01*
X0213039Y0072148D02*
X0213039Y0068211D01*
X0099772Y0115180D02*
X0089772Y0115180D01*
X0089772Y0125180D01*
X0099772Y0125180D01*
X0099772Y0135180D01*
X0069772Y0135180D01*
X0069772Y0115180D01*
X0089772Y0115180D01*
X0099772Y0115180D02*
X0099772Y0125180D01*
X0099772Y0135180D02*
X0079772Y0135180D01*
X0079772Y0145180D01*
X0069772Y0145180D01*
X0069772Y0135180D01*
X0079772Y0135180D01*
X0079772Y0145180D02*
X0099772Y0145180D01*
D15*
X0102270Y0132484D02*
X0103804Y0132484D01*
X0104572Y0131716D01*
X0102270Y0132484D02*
X0101502Y0131716D01*
X0101502Y0130949D01*
X0104572Y0127880D01*
X0101502Y0127880D01*
X0103037Y0122484D02*
X0103037Y0117880D01*
X0104572Y0117880D02*
X0101502Y0117880D01*
X0104572Y0120949D02*
X0103037Y0122484D01*
X0067072Y0122484D02*
X0067072Y0120182D01*
X0065537Y0120949D01*
X0064770Y0120949D01*
X0064002Y0120182D01*
X0064002Y0118647D01*
X0064770Y0117880D01*
X0066304Y0117880D01*
X0067072Y0118647D01*
X0067072Y0122484D02*
X0064002Y0122484D01*
X0064770Y0127880D02*
X0064002Y0128647D01*
X0064002Y0129414D01*
X0064770Y0130182D01*
X0067072Y0130182D01*
X0067072Y0128647D01*
X0066304Y0127880D01*
X0064770Y0127880D01*
X0067072Y0130182D02*
X0065537Y0131716D01*
X0064002Y0132484D01*
D16*
X0092272Y0110180D02*
X0094772Y0112680D01*
X0097272Y0110180D01*
X0092272Y0110180D01*
X0092420Y0110328D02*
X0097123Y0110328D01*
X0096875Y0110576D02*
X0092668Y0110576D01*
X0092916Y0110825D02*
X0096627Y0110825D01*
X0096379Y0111073D02*
X0093164Y0111073D01*
X0093413Y0111321D02*
X0096131Y0111321D01*
X0095883Y0111569D02*
X0093661Y0111569D01*
X0093909Y0111817D02*
X0095634Y0111817D01*
X0095386Y0112065D02*
X0094157Y0112065D01*
X0094405Y0112313D02*
X0095138Y0112313D01*
X0094890Y0112561D02*
X0094653Y0112561D01*
D17*
X0090444Y0098119D02*
X0090444Y0092248D01*
X0093380Y0095184D02*
X0087508Y0095184D01*
X0167508Y0095184D02*
X0173380Y0095184D01*
D18*
X0096116Y0067856D02*
X0096116Y0065457D01*
X0092940Y0065134D01*
X0092598Y0064067D01*
X0092085Y0063070D01*
X0094102Y0060596D01*
X0092406Y0058900D01*
X0089932Y0060918D01*
X0088936Y0060404D01*
X0087524Y0063814D01*
X0088055Y0064099D01*
X0088522Y0064481D01*
X0088904Y0064947D01*
X0089188Y0065479D01*
X0089363Y0066056D01*
X0089422Y0066656D01*
X0089358Y0067284D01*
X0089166Y0067886D01*
X0088855Y0068436D01*
X0088439Y0068911D01*
X0092705Y0068911D01*
X0092598Y0069246D02*
X0092940Y0068178D01*
X0096116Y0067856D01*
X0096116Y0067733D02*
X0089215Y0067733D01*
X0089372Y0067144D02*
X0096116Y0067144D01*
X0096116Y0066555D02*
X0089412Y0066555D01*
X0089336Y0065966D02*
X0096116Y0065966D01*
X0095327Y0065376D02*
X0089134Y0065376D01*
X0088773Y0064787D02*
X0092829Y0064787D01*
X0092640Y0064198D02*
X0088177Y0064198D01*
X0087609Y0063609D02*
X0092363Y0063609D01*
X0092126Y0063020D02*
X0087853Y0063020D01*
X0088097Y0062431D02*
X0092606Y0062431D01*
X0093087Y0061842D02*
X0088341Y0061842D01*
X0088585Y0061253D02*
X0093567Y0061253D01*
X0094047Y0060664D02*
X0090243Y0060664D01*
X0089440Y0060664D02*
X0088829Y0060664D01*
X0090966Y0060075D02*
X0093581Y0060075D01*
X0092992Y0059486D02*
X0091688Y0059486D01*
X0084596Y0062431D02*
X0080087Y0062431D01*
X0080567Y0063020D02*
X0084840Y0063020D01*
X0085084Y0063609D02*
X0080330Y0063609D01*
X0080095Y0064067D02*
X0079753Y0065134D01*
X0076577Y0065457D01*
X0076577Y0067856D01*
X0079753Y0068178D01*
X0080095Y0069246D01*
X0080608Y0070242D01*
X0078591Y0072716D01*
X0080287Y0074412D01*
X0082761Y0072395D01*
X0083757Y0072908D01*
X0084824Y0073249D01*
X0085147Y0076425D01*
X0087546Y0076425D01*
X0087869Y0073249D01*
X0088936Y0072908D01*
X0089932Y0072395D01*
X0092406Y0074412D01*
X0094102Y0072716D01*
X0092085Y0070242D01*
X0092598Y0069246D01*
X0092467Y0069500D02*
X0087489Y0069500D01*
X0087362Y0069559D02*
X0086748Y0069706D01*
X0086117Y0069723D01*
X0085495Y0069612D01*
X0084909Y0069376D01*
X0084384Y0069025D01*
X0083942Y0068574D01*
X0083601Y0068042D01*
X0083375Y0067452D01*
X0083275Y0066829D01*
X0083305Y0066198D01*
X0083463Y0065586D01*
X0083742Y0065020D01*
X0084131Y0064522D01*
X0084614Y0064115D01*
X0085169Y0063814D01*
X0083757Y0060404D01*
X0082761Y0060918D01*
X0080287Y0058900D01*
X0078591Y0060596D01*
X0080608Y0063070D01*
X0080095Y0064067D01*
X0080053Y0064198D02*
X0084515Y0064198D01*
X0083924Y0064787D02*
X0079864Y0064787D01*
X0077366Y0065376D02*
X0083566Y0065376D01*
X0083365Y0065966D02*
X0076577Y0065966D01*
X0076577Y0066555D02*
X0083288Y0066555D01*
X0083326Y0067144D02*
X0076577Y0067144D01*
X0076577Y0067733D02*
X0083482Y0067733D01*
X0083780Y0068322D02*
X0079799Y0068322D01*
X0079988Y0068911D02*
X0084272Y0068911D01*
X0085217Y0069500D02*
X0080226Y0069500D01*
X0080529Y0070089D02*
X0092164Y0070089D01*
X0092441Y0070678D02*
X0080252Y0070678D01*
X0079772Y0071267D02*
X0092921Y0071267D01*
X0093401Y0071856D02*
X0079292Y0071856D01*
X0078811Y0072445D02*
X0082699Y0072445D01*
X0082859Y0072445D02*
X0089834Y0072445D01*
X0089994Y0072445D02*
X0093882Y0072445D01*
X0093784Y0073034D02*
X0090717Y0073034D01*
X0091439Y0073623D02*
X0093195Y0073623D01*
X0092606Y0074212D02*
X0092161Y0074212D01*
X0088541Y0073034D02*
X0084152Y0073034D01*
X0084862Y0073623D02*
X0087831Y0073623D01*
X0087771Y0074212D02*
X0084922Y0074212D01*
X0084982Y0074801D02*
X0087711Y0074801D01*
X0087651Y0075391D02*
X0085042Y0075391D01*
X0085102Y0075980D02*
X0087591Y0075980D01*
X0081976Y0073034D02*
X0078909Y0073034D01*
X0079498Y0073623D02*
X0081254Y0073623D01*
X0080531Y0074212D02*
X0080087Y0074212D01*
X0087362Y0069559D02*
X0087934Y0069291D01*
X0088439Y0068911D01*
X0088920Y0068322D02*
X0092894Y0068322D01*
X0084352Y0061842D02*
X0079606Y0061842D01*
X0079126Y0061253D02*
X0084108Y0061253D01*
X0083864Y0060664D02*
X0083253Y0060664D01*
X0082450Y0060664D02*
X0078646Y0060664D01*
X0079112Y0060075D02*
X0081727Y0060075D01*
X0081005Y0059486D02*
X0079701Y0059486D01*
M02*
