G75*
%MOIN*%
%OFA0B0*%
%FSLAX25Y25*%
%IPPOS*%
%LPD*%
%AMOC8*
5,1,8,0,0,1.08239X$1,22.5*
%
%ADD10C,0.00000*%
%ADD11R,0.06425X0.06425*%
%ADD12C,0.06425*%
%ADD13R,0.05150X0.05150*%
%ADD14C,0.05150*%
%ADD15R,0.03937X0.02362*%
%ADD16C,0.10050*%
%ADD17C,0.01600*%
%ADD18R,0.03169X0.03169*%
%ADD19C,0.00600*%
%ADD20C,0.02400*%
D10*
X0047094Y0034156D02*
X0212449Y0034156D01*
X0206150Y0049904D02*
X0206152Y0050062D01*
X0206158Y0050220D01*
X0206168Y0050378D01*
X0206182Y0050536D01*
X0206200Y0050693D01*
X0206221Y0050850D01*
X0206247Y0051006D01*
X0206277Y0051162D01*
X0206310Y0051317D01*
X0206348Y0051470D01*
X0206389Y0051623D01*
X0206434Y0051775D01*
X0206483Y0051926D01*
X0206536Y0052075D01*
X0206592Y0052223D01*
X0206652Y0052369D01*
X0206716Y0052514D01*
X0206784Y0052657D01*
X0206855Y0052799D01*
X0206929Y0052939D01*
X0207007Y0053076D01*
X0207089Y0053212D01*
X0207173Y0053346D01*
X0207262Y0053477D01*
X0207353Y0053606D01*
X0207448Y0053733D01*
X0207545Y0053858D01*
X0207646Y0053980D01*
X0207750Y0054099D01*
X0207857Y0054216D01*
X0207967Y0054330D01*
X0208080Y0054441D01*
X0208195Y0054550D01*
X0208313Y0054655D01*
X0208434Y0054757D01*
X0208557Y0054857D01*
X0208683Y0054953D01*
X0208811Y0055046D01*
X0208941Y0055136D01*
X0209074Y0055222D01*
X0209209Y0055306D01*
X0209345Y0055385D01*
X0209484Y0055462D01*
X0209625Y0055534D01*
X0209767Y0055604D01*
X0209911Y0055669D01*
X0210057Y0055731D01*
X0210204Y0055789D01*
X0210353Y0055844D01*
X0210503Y0055895D01*
X0210654Y0055942D01*
X0210806Y0055985D01*
X0210959Y0056024D01*
X0211114Y0056060D01*
X0211269Y0056091D01*
X0211425Y0056119D01*
X0211581Y0056143D01*
X0211738Y0056163D01*
X0211896Y0056179D01*
X0212053Y0056191D01*
X0212212Y0056199D01*
X0212370Y0056203D01*
X0212528Y0056203D01*
X0212686Y0056199D01*
X0212845Y0056191D01*
X0213002Y0056179D01*
X0213160Y0056163D01*
X0213317Y0056143D01*
X0213473Y0056119D01*
X0213629Y0056091D01*
X0213784Y0056060D01*
X0213939Y0056024D01*
X0214092Y0055985D01*
X0214244Y0055942D01*
X0214395Y0055895D01*
X0214545Y0055844D01*
X0214694Y0055789D01*
X0214841Y0055731D01*
X0214987Y0055669D01*
X0215131Y0055604D01*
X0215273Y0055534D01*
X0215414Y0055462D01*
X0215553Y0055385D01*
X0215689Y0055306D01*
X0215824Y0055222D01*
X0215957Y0055136D01*
X0216087Y0055046D01*
X0216215Y0054953D01*
X0216341Y0054857D01*
X0216464Y0054757D01*
X0216585Y0054655D01*
X0216703Y0054550D01*
X0216818Y0054441D01*
X0216931Y0054330D01*
X0217041Y0054216D01*
X0217148Y0054099D01*
X0217252Y0053980D01*
X0217353Y0053858D01*
X0217450Y0053733D01*
X0217545Y0053606D01*
X0217636Y0053477D01*
X0217725Y0053346D01*
X0217809Y0053212D01*
X0217891Y0053076D01*
X0217969Y0052939D01*
X0218043Y0052799D01*
X0218114Y0052657D01*
X0218182Y0052514D01*
X0218246Y0052369D01*
X0218306Y0052223D01*
X0218362Y0052075D01*
X0218415Y0051926D01*
X0218464Y0051775D01*
X0218509Y0051623D01*
X0218550Y0051470D01*
X0218588Y0051317D01*
X0218621Y0051162D01*
X0218651Y0051006D01*
X0218677Y0050850D01*
X0218698Y0050693D01*
X0218716Y0050536D01*
X0218730Y0050378D01*
X0218740Y0050220D01*
X0218746Y0050062D01*
X0218748Y0049904D01*
X0218746Y0049746D01*
X0218740Y0049588D01*
X0218730Y0049430D01*
X0218716Y0049272D01*
X0218698Y0049115D01*
X0218677Y0048958D01*
X0218651Y0048802D01*
X0218621Y0048646D01*
X0218588Y0048491D01*
X0218550Y0048338D01*
X0218509Y0048185D01*
X0218464Y0048033D01*
X0218415Y0047882D01*
X0218362Y0047733D01*
X0218306Y0047585D01*
X0218246Y0047439D01*
X0218182Y0047294D01*
X0218114Y0047151D01*
X0218043Y0047009D01*
X0217969Y0046869D01*
X0217891Y0046732D01*
X0217809Y0046596D01*
X0217725Y0046462D01*
X0217636Y0046331D01*
X0217545Y0046202D01*
X0217450Y0046075D01*
X0217353Y0045950D01*
X0217252Y0045828D01*
X0217148Y0045709D01*
X0217041Y0045592D01*
X0216931Y0045478D01*
X0216818Y0045367D01*
X0216703Y0045258D01*
X0216585Y0045153D01*
X0216464Y0045051D01*
X0216341Y0044951D01*
X0216215Y0044855D01*
X0216087Y0044762D01*
X0215957Y0044672D01*
X0215824Y0044586D01*
X0215689Y0044502D01*
X0215553Y0044423D01*
X0215414Y0044346D01*
X0215273Y0044274D01*
X0215131Y0044204D01*
X0214987Y0044139D01*
X0214841Y0044077D01*
X0214694Y0044019D01*
X0214545Y0043964D01*
X0214395Y0043913D01*
X0214244Y0043866D01*
X0214092Y0043823D01*
X0213939Y0043784D01*
X0213784Y0043748D01*
X0213629Y0043717D01*
X0213473Y0043689D01*
X0213317Y0043665D01*
X0213160Y0043645D01*
X0213002Y0043629D01*
X0212845Y0043617D01*
X0212686Y0043609D01*
X0212528Y0043605D01*
X0212370Y0043605D01*
X0212212Y0043609D01*
X0212053Y0043617D01*
X0211896Y0043629D01*
X0211738Y0043645D01*
X0211581Y0043665D01*
X0211425Y0043689D01*
X0211269Y0043717D01*
X0211114Y0043748D01*
X0210959Y0043784D01*
X0210806Y0043823D01*
X0210654Y0043866D01*
X0210503Y0043913D01*
X0210353Y0043964D01*
X0210204Y0044019D01*
X0210057Y0044077D01*
X0209911Y0044139D01*
X0209767Y0044204D01*
X0209625Y0044274D01*
X0209484Y0044346D01*
X0209345Y0044423D01*
X0209209Y0044502D01*
X0209074Y0044586D01*
X0208941Y0044672D01*
X0208811Y0044762D01*
X0208683Y0044855D01*
X0208557Y0044951D01*
X0208434Y0045051D01*
X0208313Y0045153D01*
X0208195Y0045258D01*
X0208080Y0045367D01*
X0207967Y0045478D01*
X0207857Y0045592D01*
X0207750Y0045709D01*
X0207646Y0045828D01*
X0207545Y0045950D01*
X0207448Y0046075D01*
X0207353Y0046202D01*
X0207262Y0046331D01*
X0207173Y0046462D01*
X0207089Y0046596D01*
X0207007Y0046732D01*
X0206929Y0046869D01*
X0206855Y0047009D01*
X0206784Y0047151D01*
X0206716Y0047294D01*
X0206652Y0047439D01*
X0206592Y0047585D01*
X0206536Y0047733D01*
X0206483Y0047882D01*
X0206434Y0048033D01*
X0206389Y0048185D01*
X0206348Y0048338D01*
X0206310Y0048491D01*
X0206277Y0048646D01*
X0206247Y0048802D01*
X0206221Y0048958D01*
X0206200Y0049115D01*
X0206182Y0049272D01*
X0206168Y0049430D01*
X0206158Y0049588D01*
X0206152Y0049746D01*
X0206150Y0049904D01*
X0212449Y0034156D02*
X0212830Y0034161D01*
X0213210Y0034174D01*
X0213590Y0034197D01*
X0213969Y0034230D01*
X0214347Y0034271D01*
X0214724Y0034321D01*
X0215100Y0034381D01*
X0215475Y0034449D01*
X0215847Y0034527D01*
X0216218Y0034614D01*
X0216586Y0034709D01*
X0216952Y0034814D01*
X0217315Y0034927D01*
X0217676Y0035049D01*
X0218033Y0035179D01*
X0218387Y0035319D01*
X0218738Y0035466D01*
X0219085Y0035623D01*
X0219428Y0035787D01*
X0219767Y0035960D01*
X0220102Y0036141D01*
X0220433Y0036330D01*
X0220758Y0036527D01*
X0221079Y0036731D01*
X0221395Y0036944D01*
X0221705Y0037164D01*
X0222011Y0037391D01*
X0222310Y0037626D01*
X0222604Y0037868D01*
X0222892Y0038116D01*
X0223174Y0038372D01*
X0223449Y0038635D01*
X0223718Y0038904D01*
X0223981Y0039179D01*
X0224237Y0039461D01*
X0224485Y0039749D01*
X0224727Y0040043D01*
X0224962Y0040342D01*
X0225189Y0040648D01*
X0225409Y0040958D01*
X0225622Y0041274D01*
X0225826Y0041595D01*
X0226023Y0041920D01*
X0226212Y0042251D01*
X0226393Y0042586D01*
X0226566Y0042925D01*
X0226730Y0043268D01*
X0226887Y0043615D01*
X0227034Y0043966D01*
X0227174Y0044320D01*
X0227304Y0044677D01*
X0227426Y0045038D01*
X0227539Y0045401D01*
X0227644Y0045767D01*
X0227739Y0046135D01*
X0227826Y0046506D01*
X0227904Y0046878D01*
X0227972Y0047253D01*
X0228032Y0047629D01*
X0228082Y0048006D01*
X0228123Y0048384D01*
X0228156Y0048763D01*
X0228179Y0049143D01*
X0228192Y0049523D01*
X0228197Y0049904D01*
X0228197Y0140455D01*
X0206150Y0140455D02*
X0206152Y0140613D01*
X0206158Y0140771D01*
X0206168Y0140929D01*
X0206182Y0141087D01*
X0206200Y0141244D01*
X0206221Y0141401D01*
X0206247Y0141557D01*
X0206277Y0141713D01*
X0206310Y0141868D01*
X0206348Y0142021D01*
X0206389Y0142174D01*
X0206434Y0142326D01*
X0206483Y0142477D01*
X0206536Y0142626D01*
X0206592Y0142774D01*
X0206652Y0142920D01*
X0206716Y0143065D01*
X0206784Y0143208D01*
X0206855Y0143350D01*
X0206929Y0143490D01*
X0207007Y0143627D01*
X0207089Y0143763D01*
X0207173Y0143897D01*
X0207262Y0144028D01*
X0207353Y0144157D01*
X0207448Y0144284D01*
X0207545Y0144409D01*
X0207646Y0144531D01*
X0207750Y0144650D01*
X0207857Y0144767D01*
X0207967Y0144881D01*
X0208080Y0144992D01*
X0208195Y0145101D01*
X0208313Y0145206D01*
X0208434Y0145308D01*
X0208557Y0145408D01*
X0208683Y0145504D01*
X0208811Y0145597D01*
X0208941Y0145687D01*
X0209074Y0145773D01*
X0209209Y0145857D01*
X0209345Y0145936D01*
X0209484Y0146013D01*
X0209625Y0146085D01*
X0209767Y0146155D01*
X0209911Y0146220D01*
X0210057Y0146282D01*
X0210204Y0146340D01*
X0210353Y0146395D01*
X0210503Y0146446D01*
X0210654Y0146493D01*
X0210806Y0146536D01*
X0210959Y0146575D01*
X0211114Y0146611D01*
X0211269Y0146642D01*
X0211425Y0146670D01*
X0211581Y0146694D01*
X0211738Y0146714D01*
X0211896Y0146730D01*
X0212053Y0146742D01*
X0212212Y0146750D01*
X0212370Y0146754D01*
X0212528Y0146754D01*
X0212686Y0146750D01*
X0212845Y0146742D01*
X0213002Y0146730D01*
X0213160Y0146714D01*
X0213317Y0146694D01*
X0213473Y0146670D01*
X0213629Y0146642D01*
X0213784Y0146611D01*
X0213939Y0146575D01*
X0214092Y0146536D01*
X0214244Y0146493D01*
X0214395Y0146446D01*
X0214545Y0146395D01*
X0214694Y0146340D01*
X0214841Y0146282D01*
X0214987Y0146220D01*
X0215131Y0146155D01*
X0215273Y0146085D01*
X0215414Y0146013D01*
X0215553Y0145936D01*
X0215689Y0145857D01*
X0215824Y0145773D01*
X0215957Y0145687D01*
X0216087Y0145597D01*
X0216215Y0145504D01*
X0216341Y0145408D01*
X0216464Y0145308D01*
X0216585Y0145206D01*
X0216703Y0145101D01*
X0216818Y0144992D01*
X0216931Y0144881D01*
X0217041Y0144767D01*
X0217148Y0144650D01*
X0217252Y0144531D01*
X0217353Y0144409D01*
X0217450Y0144284D01*
X0217545Y0144157D01*
X0217636Y0144028D01*
X0217725Y0143897D01*
X0217809Y0143763D01*
X0217891Y0143627D01*
X0217969Y0143490D01*
X0218043Y0143350D01*
X0218114Y0143208D01*
X0218182Y0143065D01*
X0218246Y0142920D01*
X0218306Y0142774D01*
X0218362Y0142626D01*
X0218415Y0142477D01*
X0218464Y0142326D01*
X0218509Y0142174D01*
X0218550Y0142021D01*
X0218588Y0141868D01*
X0218621Y0141713D01*
X0218651Y0141557D01*
X0218677Y0141401D01*
X0218698Y0141244D01*
X0218716Y0141087D01*
X0218730Y0140929D01*
X0218740Y0140771D01*
X0218746Y0140613D01*
X0218748Y0140455D01*
X0218746Y0140297D01*
X0218740Y0140139D01*
X0218730Y0139981D01*
X0218716Y0139823D01*
X0218698Y0139666D01*
X0218677Y0139509D01*
X0218651Y0139353D01*
X0218621Y0139197D01*
X0218588Y0139042D01*
X0218550Y0138889D01*
X0218509Y0138736D01*
X0218464Y0138584D01*
X0218415Y0138433D01*
X0218362Y0138284D01*
X0218306Y0138136D01*
X0218246Y0137990D01*
X0218182Y0137845D01*
X0218114Y0137702D01*
X0218043Y0137560D01*
X0217969Y0137420D01*
X0217891Y0137283D01*
X0217809Y0137147D01*
X0217725Y0137013D01*
X0217636Y0136882D01*
X0217545Y0136753D01*
X0217450Y0136626D01*
X0217353Y0136501D01*
X0217252Y0136379D01*
X0217148Y0136260D01*
X0217041Y0136143D01*
X0216931Y0136029D01*
X0216818Y0135918D01*
X0216703Y0135809D01*
X0216585Y0135704D01*
X0216464Y0135602D01*
X0216341Y0135502D01*
X0216215Y0135406D01*
X0216087Y0135313D01*
X0215957Y0135223D01*
X0215824Y0135137D01*
X0215689Y0135053D01*
X0215553Y0134974D01*
X0215414Y0134897D01*
X0215273Y0134825D01*
X0215131Y0134755D01*
X0214987Y0134690D01*
X0214841Y0134628D01*
X0214694Y0134570D01*
X0214545Y0134515D01*
X0214395Y0134464D01*
X0214244Y0134417D01*
X0214092Y0134374D01*
X0213939Y0134335D01*
X0213784Y0134299D01*
X0213629Y0134268D01*
X0213473Y0134240D01*
X0213317Y0134216D01*
X0213160Y0134196D01*
X0213002Y0134180D01*
X0212845Y0134168D01*
X0212686Y0134160D01*
X0212528Y0134156D01*
X0212370Y0134156D01*
X0212212Y0134160D01*
X0212053Y0134168D01*
X0211896Y0134180D01*
X0211738Y0134196D01*
X0211581Y0134216D01*
X0211425Y0134240D01*
X0211269Y0134268D01*
X0211114Y0134299D01*
X0210959Y0134335D01*
X0210806Y0134374D01*
X0210654Y0134417D01*
X0210503Y0134464D01*
X0210353Y0134515D01*
X0210204Y0134570D01*
X0210057Y0134628D01*
X0209911Y0134690D01*
X0209767Y0134755D01*
X0209625Y0134825D01*
X0209484Y0134897D01*
X0209345Y0134974D01*
X0209209Y0135053D01*
X0209074Y0135137D01*
X0208941Y0135223D01*
X0208811Y0135313D01*
X0208683Y0135406D01*
X0208557Y0135502D01*
X0208434Y0135602D01*
X0208313Y0135704D01*
X0208195Y0135809D01*
X0208080Y0135918D01*
X0207967Y0136029D01*
X0207857Y0136143D01*
X0207750Y0136260D01*
X0207646Y0136379D01*
X0207545Y0136501D01*
X0207448Y0136626D01*
X0207353Y0136753D01*
X0207262Y0136882D01*
X0207173Y0137013D01*
X0207089Y0137147D01*
X0207007Y0137283D01*
X0206929Y0137420D01*
X0206855Y0137560D01*
X0206784Y0137702D01*
X0206716Y0137845D01*
X0206652Y0137990D01*
X0206592Y0138136D01*
X0206536Y0138284D01*
X0206483Y0138433D01*
X0206434Y0138584D01*
X0206389Y0138736D01*
X0206348Y0138889D01*
X0206310Y0139042D01*
X0206277Y0139197D01*
X0206247Y0139353D01*
X0206221Y0139509D01*
X0206200Y0139666D01*
X0206182Y0139823D01*
X0206168Y0139981D01*
X0206158Y0140139D01*
X0206152Y0140297D01*
X0206150Y0140455D01*
X0212449Y0156203D02*
X0212830Y0156198D01*
X0213210Y0156185D01*
X0213590Y0156162D01*
X0213969Y0156129D01*
X0214347Y0156088D01*
X0214724Y0156038D01*
X0215100Y0155978D01*
X0215475Y0155910D01*
X0215847Y0155832D01*
X0216218Y0155745D01*
X0216586Y0155650D01*
X0216952Y0155545D01*
X0217315Y0155432D01*
X0217676Y0155310D01*
X0218033Y0155180D01*
X0218387Y0155040D01*
X0218738Y0154893D01*
X0219085Y0154736D01*
X0219428Y0154572D01*
X0219767Y0154399D01*
X0220102Y0154218D01*
X0220433Y0154029D01*
X0220758Y0153832D01*
X0221079Y0153628D01*
X0221395Y0153415D01*
X0221705Y0153195D01*
X0222011Y0152968D01*
X0222310Y0152733D01*
X0222604Y0152491D01*
X0222892Y0152243D01*
X0223174Y0151987D01*
X0223449Y0151724D01*
X0223718Y0151455D01*
X0223981Y0151180D01*
X0224237Y0150898D01*
X0224485Y0150610D01*
X0224727Y0150316D01*
X0224962Y0150017D01*
X0225189Y0149711D01*
X0225409Y0149401D01*
X0225622Y0149085D01*
X0225826Y0148764D01*
X0226023Y0148439D01*
X0226212Y0148108D01*
X0226393Y0147773D01*
X0226566Y0147434D01*
X0226730Y0147091D01*
X0226887Y0146744D01*
X0227034Y0146393D01*
X0227174Y0146039D01*
X0227304Y0145682D01*
X0227426Y0145321D01*
X0227539Y0144958D01*
X0227644Y0144592D01*
X0227739Y0144224D01*
X0227826Y0143853D01*
X0227904Y0143481D01*
X0227972Y0143106D01*
X0228032Y0142730D01*
X0228082Y0142353D01*
X0228123Y0141975D01*
X0228156Y0141596D01*
X0228179Y0141216D01*
X0228192Y0140836D01*
X0228197Y0140455D01*
X0212449Y0156203D02*
X0047094Y0156203D01*
X0040795Y0140455D02*
X0040797Y0140613D01*
X0040803Y0140771D01*
X0040813Y0140929D01*
X0040827Y0141087D01*
X0040845Y0141244D01*
X0040866Y0141401D01*
X0040892Y0141557D01*
X0040922Y0141713D01*
X0040955Y0141868D01*
X0040993Y0142021D01*
X0041034Y0142174D01*
X0041079Y0142326D01*
X0041128Y0142477D01*
X0041181Y0142626D01*
X0041237Y0142774D01*
X0041297Y0142920D01*
X0041361Y0143065D01*
X0041429Y0143208D01*
X0041500Y0143350D01*
X0041574Y0143490D01*
X0041652Y0143627D01*
X0041734Y0143763D01*
X0041818Y0143897D01*
X0041907Y0144028D01*
X0041998Y0144157D01*
X0042093Y0144284D01*
X0042190Y0144409D01*
X0042291Y0144531D01*
X0042395Y0144650D01*
X0042502Y0144767D01*
X0042612Y0144881D01*
X0042725Y0144992D01*
X0042840Y0145101D01*
X0042958Y0145206D01*
X0043079Y0145308D01*
X0043202Y0145408D01*
X0043328Y0145504D01*
X0043456Y0145597D01*
X0043586Y0145687D01*
X0043719Y0145773D01*
X0043854Y0145857D01*
X0043990Y0145936D01*
X0044129Y0146013D01*
X0044270Y0146085D01*
X0044412Y0146155D01*
X0044556Y0146220D01*
X0044702Y0146282D01*
X0044849Y0146340D01*
X0044998Y0146395D01*
X0045148Y0146446D01*
X0045299Y0146493D01*
X0045451Y0146536D01*
X0045604Y0146575D01*
X0045759Y0146611D01*
X0045914Y0146642D01*
X0046070Y0146670D01*
X0046226Y0146694D01*
X0046383Y0146714D01*
X0046541Y0146730D01*
X0046698Y0146742D01*
X0046857Y0146750D01*
X0047015Y0146754D01*
X0047173Y0146754D01*
X0047331Y0146750D01*
X0047490Y0146742D01*
X0047647Y0146730D01*
X0047805Y0146714D01*
X0047962Y0146694D01*
X0048118Y0146670D01*
X0048274Y0146642D01*
X0048429Y0146611D01*
X0048584Y0146575D01*
X0048737Y0146536D01*
X0048889Y0146493D01*
X0049040Y0146446D01*
X0049190Y0146395D01*
X0049339Y0146340D01*
X0049486Y0146282D01*
X0049632Y0146220D01*
X0049776Y0146155D01*
X0049918Y0146085D01*
X0050059Y0146013D01*
X0050198Y0145936D01*
X0050334Y0145857D01*
X0050469Y0145773D01*
X0050602Y0145687D01*
X0050732Y0145597D01*
X0050860Y0145504D01*
X0050986Y0145408D01*
X0051109Y0145308D01*
X0051230Y0145206D01*
X0051348Y0145101D01*
X0051463Y0144992D01*
X0051576Y0144881D01*
X0051686Y0144767D01*
X0051793Y0144650D01*
X0051897Y0144531D01*
X0051998Y0144409D01*
X0052095Y0144284D01*
X0052190Y0144157D01*
X0052281Y0144028D01*
X0052370Y0143897D01*
X0052454Y0143763D01*
X0052536Y0143627D01*
X0052614Y0143490D01*
X0052688Y0143350D01*
X0052759Y0143208D01*
X0052827Y0143065D01*
X0052891Y0142920D01*
X0052951Y0142774D01*
X0053007Y0142626D01*
X0053060Y0142477D01*
X0053109Y0142326D01*
X0053154Y0142174D01*
X0053195Y0142021D01*
X0053233Y0141868D01*
X0053266Y0141713D01*
X0053296Y0141557D01*
X0053322Y0141401D01*
X0053343Y0141244D01*
X0053361Y0141087D01*
X0053375Y0140929D01*
X0053385Y0140771D01*
X0053391Y0140613D01*
X0053393Y0140455D01*
X0053391Y0140297D01*
X0053385Y0140139D01*
X0053375Y0139981D01*
X0053361Y0139823D01*
X0053343Y0139666D01*
X0053322Y0139509D01*
X0053296Y0139353D01*
X0053266Y0139197D01*
X0053233Y0139042D01*
X0053195Y0138889D01*
X0053154Y0138736D01*
X0053109Y0138584D01*
X0053060Y0138433D01*
X0053007Y0138284D01*
X0052951Y0138136D01*
X0052891Y0137990D01*
X0052827Y0137845D01*
X0052759Y0137702D01*
X0052688Y0137560D01*
X0052614Y0137420D01*
X0052536Y0137283D01*
X0052454Y0137147D01*
X0052370Y0137013D01*
X0052281Y0136882D01*
X0052190Y0136753D01*
X0052095Y0136626D01*
X0051998Y0136501D01*
X0051897Y0136379D01*
X0051793Y0136260D01*
X0051686Y0136143D01*
X0051576Y0136029D01*
X0051463Y0135918D01*
X0051348Y0135809D01*
X0051230Y0135704D01*
X0051109Y0135602D01*
X0050986Y0135502D01*
X0050860Y0135406D01*
X0050732Y0135313D01*
X0050602Y0135223D01*
X0050469Y0135137D01*
X0050334Y0135053D01*
X0050198Y0134974D01*
X0050059Y0134897D01*
X0049918Y0134825D01*
X0049776Y0134755D01*
X0049632Y0134690D01*
X0049486Y0134628D01*
X0049339Y0134570D01*
X0049190Y0134515D01*
X0049040Y0134464D01*
X0048889Y0134417D01*
X0048737Y0134374D01*
X0048584Y0134335D01*
X0048429Y0134299D01*
X0048274Y0134268D01*
X0048118Y0134240D01*
X0047962Y0134216D01*
X0047805Y0134196D01*
X0047647Y0134180D01*
X0047490Y0134168D01*
X0047331Y0134160D01*
X0047173Y0134156D01*
X0047015Y0134156D01*
X0046857Y0134160D01*
X0046698Y0134168D01*
X0046541Y0134180D01*
X0046383Y0134196D01*
X0046226Y0134216D01*
X0046070Y0134240D01*
X0045914Y0134268D01*
X0045759Y0134299D01*
X0045604Y0134335D01*
X0045451Y0134374D01*
X0045299Y0134417D01*
X0045148Y0134464D01*
X0044998Y0134515D01*
X0044849Y0134570D01*
X0044702Y0134628D01*
X0044556Y0134690D01*
X0044412Y0134755D01*
X0044270Y0134825D01*
X0044129Y0134897D01*
X0043990Y0134974D01*
X0043854Y0135053D01*
X0043719Y0135137D01*
X0043586Y0135223D01*
X0043456Y0135313D01*
X0043328Y0135406D01*
X0043202Y0135502D01*
X0043079Y0135602D01*
X0042958Y0135704D01*
X0042840Y0135809D01*
X0042725Y0135918D01*
X0042612Y0136029D01*
X0042502Y0136143D01*
X0042395Y0136260D01*
X0042291Y0136379D01*
X0042190Y0136501D01*
X0042093Y0136626D01*
X0041998Y0136753D01*
X0041907Y0136882D01*
X0041818Y0137013D01*
X0041734Y0137147D01*
X0041652Y0137283D01*
X0041574Y0137420D01*
X0041500Y0137560D01*
X0041429Y0137702D01*
X0041361Y0137845D01*
X0041297Y0137990D01*
X0041237Y0138136D01*
X0041181Y0138284D01*
X0041128Y0138433D01*
X0041079Y0138584D01*
X0041034Y0138736D01*
X0040993Y0138889D01*
X0040955Y0139042D01*
X0040922Y0139197D01*
X0040892Y0139353D01*
X0040866Y0139509D01*
X0040845Y0139666D01*
X0040827Y0139823D01*
X0040813Y0139981D01*
X0040803Y0140139D01*
X0040797Y0140297D01*
X0040795Y0140455D01*
X0031346Y0140455D02*
X0031351Y0140836D01*
X0031364Y0141216D01*
X0031387Y0141596D01*
X0031420Y0141975D01*
X0031461Y0142353D01*
X0031511Y0142730D01*
X0031571Y0143106D01*
X0031639Y0143481D01*
X0031717Y0143853D01*
X0031804Y0144224D01*
X0031899Y0144592D01*
X0032004Y0144958D01*
X0032117Y0145321D01*
X0032239Y0145682D01*
X0032369Y0146039D01*
X0032509Y0146393D01*
X0032656Y0146744D01*
X0032813Y0147091D01*
X0032977Y0147434D01*
X0033150Y0147773D01*
X0033331Y0148108D01*
X0033520Y0148439D01*
X0033717Y0148764D01*
X0033921Y0149085D01*
X0034134Y0149401D01*
X0034354Y0149711D01*
X0034581Y0150017D01*
X0034816Y0150316D01*
X0035058Y0150610D01*
X0035306Y0150898D01*
X0035562Y0151180D01*
X0035825Y0151455D01*
X0036094Y0151724D01*
X0036369Y0151987D01*
X0036651Y0152243D01*
X0036939Y0152491D01*
X0037233Y0152733D01*
X0037532Y0152968D01*
X0037838Y0153195D01*
X0038148Y0153415D01*
X0038464Y0153628D01*
X0038785Y0153832D01*
X0039110Y0154029D01*
X0039441Y0154218D01*
X0039776Y0154399D01*
X0040115Y0154572D01*
X0040458Y0154736D01*
X0040805Y0154893D01*
X0041156Y0155040D01*
X0041510Y0155180D01*
X0041867Y0155310D01*
X0042228Y0155432D01*
X0042591Y0155545D01*
X0042957Y0155650D01*
X0043325Y0155745D01*
X0043696Y0155832D01*
X0044068Y0155910D01*
X0044443Y0155978D01*
X0044819Y0156038D01*
X0045196Y0156088D01*
X0045574Y0156129D01*
X0045953Y0156162D01*
X0046333Y0156185D01*
X0046713Y0156198D01*
X0047094Y0156203D01*
X0031346Y0140455D02*
X0031346Y0049904D01*
X0040795Y0049904D02*
X0040797Y0050062D01*
X0040803Y0050220D01*
X0040813Y0050378D01*
X0040827Y0050536D01*
X0040845Y0050693D01*
X0040866Y0050850D01*
X0040892Y0051006D01*
X0040922Y0051162D01*
X0040955Y0051317D01*
X0040993Y0051470D01*
X0041034Y0051623D01*
X0041079Y0051775D01*
X0041128Y0051926D01*
X0041181Y0052075D01*
X0041237Y0052223D01*
X0041297Y0052369D01*
X0041361Y0052514D01*
X0041429Y0052657D01*
X0041500Y0052799D01*
X0041574Y0052939D01*
X0041652Y0053076D01*
X0041734Y0053212D01*
X0041818Y0053346D01*
X0041907Y0053477D01*
X0041998Y0053606D01*
X0042093Y0053733D01*
X0042190Y0053858D01*
X0042291Y0053980D01*
X0042395Y0054099D01*
X0042502Y0054216D01*
X0042612Y0054330D01*
X0042725Y0054441D01*
X0042840Y0054550D01*
X0042958Y0054655D01*
X0043079Y0054757D01*
X0043202Y0054857D01*
X0043328Y0054953D01*
X0043456Y0055046D01*
X0043586Y0055136D01*
X0043719Y0055222D01*
X0043854Y0055306D01*
X0043990Y0055385D01*
X0044129Y0055462D01*
X0044270Y0055534D01*
X0044412Y0055604D01*
X0044556Y0055669D01*
X0044702Y0055731D01*
X0044849Y0055789D01*
X0044998Y0055844D01*
X0045148Y0055895D01*
X0045299Y0055942D01*
X0045451Y0055985D01*
X0045604Y0056024D01*
X0045759Y0056060D01*
X0045914Y0056091D01*
X0046070Y0056119D01*
X0046226Y0056143D01*
X0046383Y0056163D01*
X0046541Y0056179D01*
X0046698Y0056191D01*
X0046857Y0056199D01*
X0047015Y0056203D01*
X0047173Y0056203D01*
X0047331Y0056199D01*
X0047490Y0056191D01*
X0047647Y0056179D01*
X0047805Y0056163D01*
X0047962Y0056143D01*
X0048118Y0056119D01*
X0048274Y0056091D01*
X0048429Y0056060D01*
X0048584Y0056024D01*
X0048737Y0055985D01*
X0048889Y0055942D01*
X0049040Y0055895D01*
X0049190Y0055844D01*
X0049339Y0055789D01*
X0049486Y0055731D01*
X0049632Y0055669D01*
X0049776Y0055604D01*
X0049918Y0055534D01*
X0050059Y0055462D01*
X0050198Y0055385D01*
X0050334Y0055306D01*
X0050469Y0055222D01*
X0050602Y0055136D01*
X0050732Y0055046D01*
X0050860Y0054953D01*
X0050986Y0054857D01*
X0051109Y0054757D01*
X0051230Y0054655D01*
X0051348Y0054550D01*
X0051463Y0054441D01*
X0051576Y0054330D01*
X0051686Y0054216D01*
X0051793Y0054099D01*
X0051897Y0053980D01*
X0051998Y0053858D01*
X0052095Y0053733D01*
X0052190Y0053606D01*
X0052281Y0053477D01*
X0052370Y0053346D01*
X0052454Y0053212D01*
X0052536Y0053076D01*
X0052614Y0052939D01*
X0052688Y0052799D01*
X0052759Y0052657D01*
X0052827Y0052514D01*
X0052891Y0052369D01*
X0052951Y0052223D01*
X0053007Y0052075D01*
X0053060Y0051926D01*
X0053109Y0051775D01*
X0053154Y0051623D01*
X0053195Y0051470D01*
X0053233Y0051317D01*
X0053266Y0051162D01*
X0053296Y0051006D01*
X0053322Y0050850D01*
X0053343Y0050693D01*
X0053361Y0050536D01*
X0053375Y0050378D01*
X0053385Y0050220D01*
X0053391Y0050062D01*
X0053393Y0049904D01*
X0053391Y0049746D01*
X0053385Y0049588D01*
X0053375Y0049430D01*
X0053361Y0049272D01*
X0053343Y0049115D01*
X0053322Y0048958D01*
X0053296Y0048802D01*
X0053266Y0048646D01*
X0053233Y0048491D01*
X0053195Y0048338D01*
X0053154Y0048185D01*
X0053109Y0048033D01*
X0053060Y0047882D01*
X0053007Y0047733D01*
X0052951Y0047585D01*
X0052891Y0047439D01*
X0052827Y0047294D01*
X0052759Y0047151D01*
X0052688Y0047009D01*
X0052614Y0046869D01*
X0052536Y0046732D01*
X0052454Y0046596D01*
X0052370Y0046462D01*
X0052281Y0046331D01*
X0052190Y0046202D01*
X0052095Y0046075D01*
X0051998Y0045950D01*
X0051897Y0045828D01*
X0051793Y0045709D01*
X0051686Y0045592D01*
X0051576Y0045478D01*
X0051463Y0045367D01*
X0051348Y0045258D01*
X0051230Y0045153D01*
X0051109Y0045051D01*
X0050986Y0044951D01*
X0050860Y0044855D01*
X0050732Y0044762D01*
X0050602Y0044672D01*
X0050469Y0044586D01*
X0050334Y0044502D01*
X0050198Y0044423D01*
X0050059Y0044346D01*
X0049918Y0044274D01*
X0049776Y0044204D01*
X0049632Y0044139D01*
X0049486Y0044077D01*
X0049339Y0044019D01*
X0049190Y0043964D01*
X0049040Y0043913D01*
X0048889Y0043866D01*
X0048737Y0043823D01*
X0048584Y0043784D01*
X0048429Y0043748D01*
X0048274Y0043717D01*
X0048118Y0043689D01*
X0047962Y0043665D01*
X0047805Y0043645D01*
X0047647Y0043629D01*
X0047490Y0043617D01*
X0047331Y0043609D01*
X0047173Y0043605D01*
X0047015Y0043605D01*
X0046857Y0043609D01*
X0046698Y0043617D01*
X0046541Y0043629D01*
X0046383Y0043645D01*
X0046226Y0043665D01*
X0046070Y0043689D01*
X0045914Y0043717D01*
X0045759Y0043748D01*
X0045604Y0043784D01*
X0045451Y0043823D01*
X0045299Y0043866D01*
X0045148Y0043913D01*
X0044998Y0043964D01*
X0044849Y0044019D01*
X0044702Y0044077D01*
X0044556Y0044139D01*
X0044412Y0044204D01*
X0044270Y0044274D01*
X0044129Y0044346D01*
X0043990Y0044423D01*
X0043854Y0044502D01*
X0043719Y0044586D01*
X0043586Y0044672D01*
X0043456Y0044762D01*
X0043328Y0044855D01*
X0043202Y0044951D01*
X0043079Y0045051D01*
X0042958Y0045153D01*
X0042840Y0045258D01*
X0042725Y0045367D01*
X0042612Y0045478D01*
X0042502Y0045592D01*
X0042395Y0045709D01*
X0042291Y0045828D01*
X0042190Y0045950D01*
X0042093Y0046075D01*
X0041998Y0046202D01*
X0041907Y0046331D01*
X0041818Y0046462D01*
X0041734Y0046596D01*
X0041652Y0046732D01*
X0041574Y0046869D01*
X0041500Y0047009D01*
X0041429Y0047151D01*
X0041361Y0047294D01*
X0041297Y0047439D01*
X0041237Y0047585D01*
X0041181Y0047733D01*
X0041128Y0047882D01*
X0041079Y0048033D01*
X0041034Y0048185D01*
X0040993Y0048338D01*
X0040955Y0048491D01*
X0040922Y0048646D01*
X0040892Y0048802D01*
X0040866Y0048958D01*
X0040845Y0049115D01*
X0040827Y0049272D01*
X0040813Y0049430D01*
X0040803Y0049588D01*
X0040797Y0049746D01*
X0040795Y0049904D01*
X0031346Y0049904D02*
X0031351Y0049523D01*
X0031364Y0049143D01*
X0031387Y0048763D01*
X0031420Y0048384D01*
X0031461Y0048006D01*
X0031511Y0047629D01*
X0031571Y0047253D01*
X0031639Y0046878D01*
X0031717Y0046506D01*
X0031804Y0046135D01*
X0031899Y0045767D01*
X0032004Y0045401D01*
X0032117Y0045038D01*
X0032239Y0044677D01*
X0032369Y0044320D01*
X0032509Y0043966D01*
X0032656Y0043615D01*
X0032813Y0043268D01*
X0032977Y0042925D01*
X0033150Y0042586D01*
X0033331Y0042251D01*
X0033520Y0041920D01*
X0033717Y0041595D01*
X0033921Y0041274D01*
X0034134Y0040958D01*
X0034354Y0040648D01*
X0034581Y0040342D01*
X0034816Y0040043D01*
X0035058Y0039749D01*
X0035306Y0039461D01*
X0035562Y0039179D01*
X0035825Y0038904D01*
X0036094Y0038635D01*
X0036369Y0038372D01*
X0036651Y0038116D01*
X0036939Y0037868D01*
X0037233Y0037626D01*
X0037532Y0037391D01*
X0037838Y0037164D01*
X0038148Y0036944D01*
X0038464Y0036731D01*
X0038785Y0036527D01*
X0039110Y0036330D01*
X0039441Y0036141D01*
X0039776Y0035960D01*
X0040115Y0035787D01*
X0040458Y0035623D01*
X0040805Y0035466D01*
X0041156Y0035319D01*
X0041510Y0035179D01*
X0041867Y0035049D01*
X0042228Y0034927D01*
X0042591Y0034814D01*
X0042957Y0034709D01*
X0043325Y0034614D01*
X0043696Y0034527D01*
X0044068Y0034449D01*
X0044443Y0034381D01*
X0044819Y0034321D01*
X0045196Y0034271D01*
X0045574Y0034230D01*
X0045953Y0034197D01*
X0046333Y0034174D01*
X0046713Y0034161D01*
X0047094Y0034156D01*
D11*
X0124772Y0050180D03*
X0094772Y0120180D03*
X0074772Y0130180D03*
X0194772Y0140180D03*
D12*
X0184772Y0140180D03*
X0174772Y0140180D03*
X0164772Y0140180D03*
X0154772Y0140180D03*
X0144772Y0140180D03*
X0134772Y0140180D03*
X0124772Y0140180D03*
X0094772Y0130180D03*
X0084772Y0130180D03*
X0084772Y0120180D03*
X0074772Y0120180D03*
X0134772Y0050180D03*
X0144772Y0050180D03*
X0154772Y0050180D03*
X0164772Y0050180D03*
X0174772Y0050180D03*
X0184772Y0050180D03*
X0194772Y0050180D03*
D13*
X0074772Y0140180D03*
D14*
X0084772Y0140180D03*
X0094772Y0140180D03*
D15*
X0189417Y0070180D03*
X0216976Y0070180D03*
D16*
X0214772Y0095180D03*
X0184772Y0095180D03*
X0074772Y0095180D03*
X0044772Y0095180D03*
D17*
X0049343Y0099695D02*
X0070201Y0099695D01*
X0069325Y0098819D02*
X0068347Y0096458D01*
X0068347Y0093902D01*
X0069325Y0091540D01*
X0071132Y0089733D01*
X0073494Y0088755D01*
X0076050Y0088755D01*
X0078411Y0089733D01*
X0080218Y0091540D01*
X0081197Y0093902D01*
X0081197Y0096458D01*
X0080218Y0098819D01*
X0078411Y0100627D01*
X0076050Y0101605D01*
X0073494Y0101605D01*
X0071132Y0100627D01*
X0069325Y0098819D01*
X0069025Y0098097D02*
X0050518Y0098097D01*
X0050218Y0098819D02*
X0051197Y0096458D01*
X0051197Y0093902D01*
X0050218Y0091540D01*
X0048411Y0089733D01*
X0046050Y0088755D01*
X0043494Y0088755D01*
X0041132Y0089733D01*
X0039325Y0091540D01*
X0038347Y0093902D01*
X0038347Y0096458D01*
X0039325Y0098819D01*
X0041132Y0100627D01*
X0043494Y0101605D01*
X0046050Y0101605D01*
X0048411Y0100627D01*
X0050218Y0098819D01*
X0051180Y0096498D02*
X0068363Y0096498D01*
X0068347Y0094900D02*
X0051197Y0094900D01*
X0050948Y0093301D02*
X0068595Y0093301D01*
X0069258Y0091703D02*
X0050286Y0091703D01*
X0048782Y0090104D02*
X0070761Y0090104D01*
X0078782Y0090104D02*
X0101170Y0090104D01*
X0099572Y0091703D02*
X0080286Y0091703D01*
X0080948Y0093301D02*
X0097973Y0093301D01*
X0096375Y0094900D02*
X0081197Y0094900D01*
X0081180Y0096498D02*
X0094776Y0096498D01*
X0093178Y0098097D02*
X0080518Y0098097D01*
X0079343Y0099695D02*
X0091579Y0099695D01*
X0089981Y0101294D02*
X0076801Y0101294D01*
X0072742Y0101294D02*
X0046801Y0101294D01*
X0042742Y0101294D02*
X0033146Y0101294D01*
X0033146Y0102892D02*
X0088382Y0102892D01*
X0086784Y0104491D02*
X0033146Y0104491D01*
X0033146Y0106089D02*
X0085185Y0106089D01*
X0083587Y0107688D02*
X0033146Y0107688D01*
X0033146Y0109286D02*
X0081988Y0109286D01*
X0080390Y0110885D02*
X0033146Y0110885D01*
X0033146Y0112483D02*
X0078791Y0112483D01*
X0077193Y0114082D02*
X0033146Y0114082D01*
X0033146Y0115680D02*
X0073581Y0115680D01*
X0073854Y0115567D02*
X0075689Y0115567D01*
X0075702Y0115573D01*
X0122567Y0068707D01*
X0123299Y0067976D01*
X0124254Y0067580D01*
X0188340Y0067580D01*
X0192172Y0063748D01*
X0192172Y0054095D01*
X0192159Y0054090D01*
X0190861Y0052793D01*
X0190159Y0051097D01*
X0190159Y0049262D01*
X0190861Y0047567D01*
X0192159Y0046269D01*
X0193854Y0045567D01*
X0195689Y0045567D01*
X0197384Y0046269D01*
X0198682Y0047567D01*
X0199384Y0049262D01*
X0199384Y0051097D01*
X0198682Y0052793D01*
X0197384Y0054090D01*
X0197372Y0054095D01*
X0197372Y0065343D01*
X0196976Y0066298D01*
X0196244Y0067030D01*
X0192786Y0070488D01*
X0192786Y0071941D01*
X0191966Y0072761D01*
X0189980Y0072761D01*
X0189934Y0072780D01*
X0125849Y0072780D01*
X0082500Y0116128D01*
X0083854Y0115567D01*
X0085689Y0115567D01*
X0086002Y0115697D01*
X0089046Y0112652D01*
X0090042Y0111656D01*
X0109451Y0111656D01*
X0133506Y0135711D01*
X0133854Y0135567D01*
X0135689Y0135567D01*
X0137384Y0136269D01*
X0138682Y0137567D01*
X0139384Y0139262D01*
X0139384Y0141097D01*
X0138682Y0142793D01*
X0137384Y0144090D01*
X0135689Y0144792D01*
X0133854Y0144792D01*
X0132159Y0144090D01*
X0130861Y0142793D01*
X0130159Y0141097D01*
X0130159Y0139262D01*
X0130771Y0137785D01*
X0108042Y0115056D01*
X0091451Y0115056D01*
X0088758Y0117749D01*
X0089384Y0119262D01*
X0089384Y0121097D01*
X0088682Y0122793D01*
X0087384Y0124090D01*
X0085689Y0124792D01*
X0083854Y0124792D01*
X0082159Y0124090D01*
X0080861Y0122793D01*
X0080159Y0121097D01*
X0080159Y0119262D01*
X0080720Y0117909D01*
X0079379Y0119249D01*
X0079384Y0119262D01*
X0079384Y0121097D01*
X0078682Y0122793D01*
X0077384Y0124090D01*
X0075689Y0124792D01*
X0073854Y0124792D01*
X0072159Y0124090D01*
X0070861Y0122793D01*
X0070159Y0121097D01*
X0070159Y0119262D01*
X0070861Y0117567D01*
X0072159Y0116269D01*
X0073854Y0115567D01*
X0071149Y0117279D02*
X0033146Y0117279D01*
X0033146Y0118877D02*
X0070319Y0118877D01*
X0070159Y0120476D02*
X0033146Y0120476D01*
X0033146Y0122074D02*
X0070564Y0122074D01*
X0071741Y0123673D02*
X0033146Y0123673D01*
X0033146Y0125271D02*
X0070933Y0125271D01*
X0070864Y0125290D02*
X0071322Y0125167D01*
X0074568Y0125167D01*
X0074568Y0129976D01*
X0074976Y0129976D01*
X0074976Y0130384D01*
X0079784Y0130384D01*
X0079784Y0133629D01*
X0079662Y0134087D01*
X0079425Y0134498D01*
X0079089Y0134833D01*
X0078679Y0135070D01*
X0078221Y0135192D01*
X0074976Y0135192D01*
X0074976Y0130384D01*
X0074568Y0130384D01*
X0074568Y0135192D01*
X0071322Y0135192D01*
X0070864Y0135070D01*
X0070454Y0134833D01*
X0070119Y0134498D01*
X0069882Y0134087D01*
X0069759Y0133629D01*
X0069759Y0130384D01*
X0074568Y0130384D01*
X0074568Y0129976D01*
X0069759Y0129976D01*
X0069759Y0126730D01*
X0069882Y0126272D01*
X0070119Y0125862D01*
X0070454Y0125527D01*
X0070864Y0125290D01*
X0069759Y0126870D02*
X0033146Y0126870D01*
X0033146Y0127844D02*
X0046796Y0127844D01*
X0046821Y0127823D01*
X0047123Y0127844D01*
X0047426Y0127844D01*
X0047449Y0127868D01*
X0048567Y0127948D01*
X0048622Y0127912D01*
X0048889Y0127971D01*
X0049163Y0127990D01*
X0049206Y0128039D01*
X0050332Y0128284D01*
X0050391Y0128257D01*
X0050648Y0128353D01*
X0050916Y0128412D01*
X0050951Y0128466D01*
X0052031Y0128869D01*
X0052094Y0128851D01*
X0052334Y0128982D01*
X0052591Y0129078D01*
X0052618Y0129137D01*
X0053630Y0129690D01*
X0053694Y0129680D01*
X0053914Y0129845D01*
X0054154Y0129976D01*
X0054173Y0130038D01*
X0055095Y0130729D01*
X0055160Y0130729D01*
X0055354Y0130923D01*
X0055574Y0131087D01*
X0055583Y0131152D01*
X0056398Y0131967D01*
X0056463Y0131976D01*
X0056627Y0132196D01*
X0056821Y0132389D01*
X0056821Y0132455D01*
X0057511Y0133377D01*
X0057574Y0133396D01*
X0057705Y0133636D01*
X0057870Y0133856D01*
X0057860Y0133920D01*
X0058413Y0134932D01*
X0058472Y0134959D01*
X0058568Y0135216D01*
X0058699Y0135456D01*
X0058681Y0135519D01*
X0059084Y0136599D01*
X0059138Y0136634D01*
X0059197Y0136902D01*
X0059292Y0137159D01*
X0059265Y0137218D01*
X0059510Y0138344D01*
X0059560Y0138387D01*
X0059579Y0138660D01*
X0059637Y0138928D01*
X0059602Y0138983D01*
X0059682Y0140101D01*
X0059705Y0140124D01*
X0059705Y0140427D01*
X0059727Y0140729D01*
X0059705Y0140754D01*
X0059705Y0154403D01*
X0199838Y0154403D01*
X0199838Y0140754D01*
X0199816Y0140729D01*
X0199838Y0140427D01*
X0199838Y0140124D01*
X0199861Y0140101D01*
X0199941Y0138983D01*
X0199906Y0138928D01*
X0199964Y0138660D01*
X0199984Y0138387D01*
X0200033Y0138344D01*
X0200278Y0137218D01*
X0200251Y0137159D01*
X0200347Y0136902D01*
X0200405Y0136634D01*
X0200460Y0136599D01*
X0200863Y0135519D01*
X0200844Y0135456D01*
X0200976Y0135216D01*
X0201071Y0134959D01*
X0201131Y0134932D01*
X0201683Y0133920D01*
X0201674Y0133856D01*
X0201838Y0133636D01*
X0201969Y0133396D01*
X0202032Y0133377D01*
X0202723Y0132455D01*
X0202723Y0132389D01*
X0202916Y0132196D01*
X0203081Y0131976D01*
X0203145Y0131967D01*
X0203960Y0131152D01*
X0203970Y0131087D01*
X0204189Y0130923D01*
X0204383Y0130729D01*
X0204448Y0130729D01*
X0205371Y0130038D01*
X0205389Y0129976D01*
X0205630Y0129845D01*
X0205849Y0129680D01*
X0205914Y0129690D01*
X0206925Y0129137D01*
X0206952Y0129078D01*
X0207209Y0128982D01*
X0207450Y0128851D01*
X0207512Y0128869D01*
X0208592Y0128466D01*
X0208627Y0128412D01*
X0208895Y0128353D01*
X0209152Y0128257D01*
X0209211Y0128284D01*
X0210338Y0128039D01*
X0210380Y0127990D01*
X0210654Y0127971D01*
X0210922Y0127912D01*
X0210976Y0127948D01*
X0212094Y0127868D01*
X0212117Y0127844D01*
X0212420Y0127844D01*
X0212722Y0127823D01*
X0212747Y0127844D01*
X0226397Y0127844D01*
X0226397Y0062515D01*
X0212747Y0062515D01*
X0212722Y0062537D01*
X0212420Y0062515D01*
X0212117Y0062515D01*
X0212094Y0062492D01*
X0210976Y0062412D01*
X0210922Y0062447D01*
X0210654Y0062389D01*
X0210380Y0062369D01*
X0210338Y0062320D01*
X0209211Y0062075D01*
X0209152Y0062102D01*
X0208895Y0062006D01*
X0208627Y0061948D01*
X0208592Y0061893D01*
X0207512Y0061490D01*
X0207450Y0061509D01*
X0207209Y0061377D01*
X0206952Y0061282D01*
X0206925Y0061222D01*
X0205914Y0060670D01*
X0205849Y0060679D01*
X0205630Y0060515D01*
X0205389Y0060384D01*
X0205371Y0060321D01*
X0204448Y0059630D01*
X0204383Y0059630D01*
X0204189Y0059437D01*
X0203970Y0059272D01*
X0203960Y0059208D01*
X0203145Y0058393D01*
X0203081Y0058383D01*
X0202916Y0058164D01*
X0202723Y0057970D01*
X0202723Y0057905D01*
X0202032Y0056982D01*
X0201969Y0056964D01*
X0201838Y0056723D01*
X0201674Y0056504D01*
X0201683Y0056439D01*
X0201131Y0055428D01*
X0201071Y0055401D01*
X0200976Y0055144D01*
X0200844Y0054903D01*
X0200863Y0054841D01*
X0200460Y0053761D01*
X0200405Y0053726D01*
X0200347Y0053458D01*
X0200251Y0053201D01*
X0200278Y0053142D01*
X0200033Y0052015D01*
X0199984Y0051973D01*
X0199964Y0051699D01*
X0199906Y0051431D01*
X0199941Y0051377D01*
X0199861Y0050259D01*
X0199838Y0050236D01*
X0199838Y0049933D01*
X0199816Y0049631D01*
X0199838Y0049606D01*
X0199838Y0035956D01*
X0059705Y0035956D01*
X0059705Y0049606D01*
X0059727Y0049631D01*
X0059705Y0049933D01*
X0059705Y0050236D01*
X0059682Y0050259D01*
X0059602Y0051377D01*
X0059637Y0051431D01*
X0059579Y0051699D01*
X0059560Y0051973D01*
X0059510Y0052015D01*
X0059265Y0053142D01*
X0059292Y0053201D01*
X0059197Y0053458D01*
X0059138Y0053726D01*
X0059084Y0053761D01*
X0058681Y0054841D01*
X0058699Y0054903D01*
X0058568Y0055144D01*
X0058472Y0055401D01*
X0058413Y0055428D01*
X0057860Y0056439D01*
X0057870Y0056504D01*
X0057705Y0056723D01*
X0057574Y0056964D01*
X0057511Y0056982D01*
X0056821Y0057905D01*
X0056821Y0057970D01*
X0056627Y0058164D01*
X0056463Y0058383D01*
X0056398Y0058393D01*
X0055583Y0059208D01*
X0055574Y0059272D01*
X0055354Y0059437D01*
X0055160Y0059630D01*
X0055095Y0059630D01*
X0054173Y0060321D01*
X0054154Y0060384D01*
X0053914Y0060515D01*
X0053694Y0060679D01*
X0053630Y0060670D01*
X0052618Y0061222D01*
X0052591Y0061282D01*
X0052334Y0061377D01*
X0052094Y0061509D01*
X0052031Y0061490D01*
X0050951Y0061893D01*
X0050916Y0061948D01*
X0050648Y0062006D01*
X0050391Y0062102D01*
X0050332Y0062075D01*
X0049206Y0062320D01*
X0049163Y0062369D01*
X0048889Y0062389D01*
X0048622Y0062447D01*
X0048567Y0062412D01*
X0047449Y0062492D01*
X0047426Y0062515D01*
X0047123Y0062515D01*
X0046821Y0062537D01*
X0046796Y0062515D01*
X0033146Y0062515D01*
X0033146Y0127844D01*
X0050957Y0128468D02*
X0069759Y0128468D01*
X0069759Y0131665D02*
X0056097Y0131665D01*
X0057426Y0133264D02*
X0069759Y0133264D01*
X0070505Y0134862D02*
X0058375Y0134862D01*
X0059032Y0136461D02*
X0071361Y0136461D01*
X0071617Y0136205D02*
X0077926Y0136205D01*
X0078746Y0137025D01*
X0078746Y0143334D01*
X0077926Y0144155D01*
X0071617Y0144155D01*
X0070797Y0143334D01*
X0070797Y0137025D01*
X0071617Y0136205D01*
X0070797Y0138059D02*
X0059448Y0138059D01*
X0059651Y0139658D02*
X0070797Y0139658D01*
X0070797Y0141256D02*
X0059705Y0141256D01*
X0059705Y0142855D02*
X0070797Y0142855D01*
X0078746Y0142855D02*
X0081308Y0142855D01*
X0081435Y0143030D02*
X0081030Y0142473D01*
X0080717Y0141859D01*
X0080505Y0141204D01*
X0080397Y0140524D01*
X0080397Y0140180D01*
X0084772Y0140180D01*
X0089146Y0140180D01*
X0089146Y0140524D01*
X0089039Y0141204D01*
X0088826Y0141859D01*
X0088513Y0142473D01*
X0088109Y0143030D01*
X0087622Y0143517D01*
X0087065Y0143921D01*
X0086451Y0144234D01*
X0085796Y0144447D01*
X0085116Y0144555D01*
X0084772Y0144555D01*
X0084772Y0140180D01*
X0084772Y0140180D01*
X0084772Y0140180D01*
X0089146Y0140180D01*
X0089146Y0139835D01*
X0089039Y0139155D01*
X0088826Y0138500D01*
X0088513Y0137887D01*
X0088109Y0137330D01*
X0087622Y0136843D01*
X0087065Y0136438D01*
X0086451Y0136125D01*
X0085796Y0135913D01*
X0085116Y0135805D01*
X0084772Y0135805D01*
X0084772Y0140180D01*
X0084772Y0144555D01*
X0084427Y0144555D01*
X0083747Y0144447D01*
X0083092Y0144234D01*
X0082479Y0143921D01*
X0081922Y0143517D01*
X0081435Y0143030D01*
X0080522Y0141256D02*
X0078746Y0141256D01*
X0078746Y0139658D02*
X0080425Y0139658D01*
X0080397Y0139835D02*
X0080505Y0139155D01*
X0080717Y0138500D01*
X0081030Y0137887D01*
X0081435Y0137330D01*
X0081922Y0136843D01*
X0082479Y0136438D01*
X0083092Y0136125D01*
X0083747Y0135913D01*
X0084427Y0135805D01*
X0084772Y0135805D01*
X0084772Y0140180D01*
X0084772Y0140180D01*
X0084772Y0140180D01*
X0080397Y0140180D01*
X0080397Y0139835D01*
X0080942Y0138059D02*
X0078746Y0138059D01*
X0078182Y0136461D02*
X0082447Y0136461D01*
X0083854Y0134792D02*
X0082159Y0134090D01*
X0080861Y0132793D01*
X0080159Y0131097D01*
X0080159Y0129262D01*
X0080861Y0127567D01*
X0082159Y0126269D01*
X0083854Y0125567D01*
X0085689Y0125567D01*
X0087384Y0126269D01*
X0088682Y0127567D01*
X0089384Y0129262D01*
X0089384Y0131097D01*
X0089006Y0132010D01*
X0089452Y0132456D01*
X0089551Y0132456D01*
X0090313Y0133218D01*
X0090653Y0133440D01*
X0091509Y0133440D01*
X0090861Y0132793D01*
X0090159Y0131097D01*
X0090159Y0129262D01*
X0090861Y0127567D01*
X0092159Y0126269D01*
X0093854Y0125567D01*
X0095689Y0125567D01*
X0097384Y0126269D01*
X0098682Y0127567D01*
X0099384Y0129262D01*
X0099384Y0131097D01*
X0098682Y0132793D01*
X0098034Y0133440D01*
X0100535Y0133440D01*
X0101531Y0134436D01*
X0114551Y0147456D01*
X0120042Y0147456D01*
X0116646Y0144060D01*
X0116646Y0141060D01*
X0099384Y0123798D01*
X0099384Y0123972D01*
X0098564Y0124792D01*
X0090979Y0124792D01*
X0090159Y0123972D01*
X0090159Y0116387D01*
X0090979Y0115567D01*
X0098564Y0115567D01*
X0099384Y0116387D01*
X0099384Y0118990D01*
X0119051Y0138656D01*
X0120046Y0139652D01*
X0120046Y0142652D01*
X0122651Y0145256D01*
X0136842Y0145256D01*
X0138846Y0143252D01*
X0138846Y0142652D01*
X0140230Y0141268D01*
X0140159Y0141097D01*
X0140159Y0139262D01*
X0140861Y0137567D01*
X0142159Y0136269D01*
X0143854Y0135567D01*
X0145689Y0135567D01*
X0147384Y0136269D01*
X0148682Y0137567D01*
X0149384Y0139262D01*
X0149384Y0141097D01*
X0148682Y0142793D01*
X0147384Y0144090D01*
X0145689Y0144792D01*
X0143854Y0144792D01*
X0142246Y0144126D01*
X0142246Y0144660D01*
X0141251Y0145656D01*
X0139451Y0147456D01*
X0145091Y0147456D01*
X0150537Y0142010D01*
X0150159Y0141097D01*
X0150159Y0139262D01*
X0150861Y0137567D01*
X0152159Y0136269D01*
X0153854Y0135567D01*
X0155689Y0135567D01*
X0157384Y0136269D01*
X0158682Y0137567D01*
X0159384Y0139262D01*
X0159384Y0141097D01*
X0158682Y0142793D01*
X0157384Y0144090D01*
X0155689Y0144792D01*
X0153854Y0144792D01*
X0152941Y0144414D01*
X0146499Y0150856D01*
X0113142Y0150856D01*
X0099127Y0136840D01*
X0097053Y0136840D01*
X0098141Y0137928D01*
X0098746Y0139389D01*
X0098746Y0140970D01*
X0098141Y0142431D01*
X0097023Y0143549D01*
X0095562Y0144155D01*
X0093981Y0144155D01*
X0092520Y0143549D01*
X0091402Y0142431D01*
X0090797Y0140970D01*
X0090797Y0139389D01*
X0091402Y0137928D01*
X0092490Y0136840D01*
X0090323Y0136840D01*
X0089806Y0136949D01*
X0089640Y0136840D01*
X0089442Y0136840D01*
X0089069Y0136467D01*
X0088437Y0136054D01*
X0088236Y0136053D01*
X0087866Y0135681D01*
X0087427Y0135394D01*
X0087386Y0135198D01*
X0087048Y0134860D01*
X0086602Y0134414D01*
X0085689Y0134792D01*
X0083854Y0134792D01*
X0084772Y0136461D02*
X0084772Y0136461D01*
X0084772Y0138059D02*
X0084772Y0138059D01*
X0084772Y0139658D02*
X0084772Y0139658D01*
X0084772Y0141256D02*
X0084772Y0141256D01*
X0084772Y0142855D02*
X0084772Y0142855D01*
X0084772Y0144453D02*
X0084772Y0144453D01*
X0085754Y0144453D02*
X0106740Y0144453D01*
X0105141Y0142855D02*
X0097718Y0142855D01*
X0098628Y0141256D02*
X0103543Y0141256D01*
X0101944Y0139658D02*
X0098746Y0139658D01*
X0098196Y0138059D02*
X0100346Y0138059D01*
X0103555Y0136461D02*
X0112047Y0136461D01*
X0113646Y0138059D02*
X0105154Y0138059D01*
X0106752Y0139658D02*
X0115244Y0139658D01*
X0116646Y0141256D02*
X0108351Y0141256D01*
X0109949Y0142855D02*
X0116646Y0142855D01*
X0117040Y0144453D02*
X0111548Y0144453D01*
X0113146Y0146052D02*
X0118638Y0146052D01*
X0121848Y0144453D02*
X0123036Y0144453D01*
X0123854Y0144792D02*
X0122159Y0144090D01*
X0120861Y0142793D01*
X0120159Y0141097D01*
X0120159Y0139262D01*
X0120861Y0137567D01*
X0122159Y0136269D01*
X0123854Y0135567D01*
X0125689Y0135567D01*
X0127384Y0136269D01*
X0128682Y0137567D01*
X0129384Y0139262D01*
X0129384Y0141097D01*
X0128682Y0142793D01*
X0127384Y0144090D01*
X0125689Y0144792D01*
X0123854Y0144792D01*
X0126507Y0144453D02*
X0133036Y0144453D01*
X0130924Y0142855D02*
X0128620Y0142855D01*
X0129318Y0141256D02*
X0130225Y0141256D01*
X0130159Y0139658D02*
X0129384Y0139658D01*
X0128886Y0138059D02*
X0130657Y0138059D01*
X0129447Y0136461D02*
X0127576Y0136461D01*
X0127849Y0134862D02*
X0115257Y0134862D01*
X0113658Y0133264D02*
X0126250Y0133264D01*
X0124652Y0131665D02*
X0112060Y0131665D01*
X0110461Y0130067D02*
X0123053Y0130067D01*
X0121454Y0128468D02*
X0108863Y0128468D01*
X0107264Y0126870D02*
X0119856Y0126870D01*
X0118257Y0125271D02*
X0105666Y0125271D01*
X0104067Y0123673D02*
X0116659Y0123673D01*
X0115060Y0122074D02*
X0102469Y0122074D01*
X0100870Y0120476D02*
X0113462Y0120476D01*
X0111863Y0118877D02*
X0099384Y0118877D01*
X0099384Y0117279D02*
X0110265Y0117279D01*
X0108666Y0115680D02*
X0098677Y0115680D01*
X0090866Y0115680D02*
X0090827Y0115680D01*
X0090159Y0117279D02*
X0089228Y0117279D01*
X0089225Y0118877D02*
X0090159Y0118877D01*
X0090159Y0120476D02*
X0089384Y0120476D01*
X0088980Y0122074D02*
X0090159Y0122074D01*
X0090159Y0123673D02*
X0087802Y0123673D01*
X0087985Y0126870D02*
X0091558Y0126870D01*
X0090488Y0128468D02*
X0089055Y0128468D01*
X0089384Y0130067D02*
X0090159Y0130067D01*
X0090394Y0131665D02*
X0089149Y0131665D01*
X0090383Y0133264D02*
X0091333Y0133264D01*
X0089060Y0136461D02*
X0087096Y0136461D01*
X0087050Y0134862D02*
X0079038Y0134862D01*
X0079784Y0133264D02*
X0081333Y0133264D01*
X0080394Y0131665D02*
X0079784Y0131665D01*
X0080159Y0130067D02*
X0074976Y0130067D01*
X0074976Y0129976D02*
X0079784Y0129976D01*
X0079784Y0126730D01*
X0079662Y0126272D01*
X0079425Y0125862D01*
X0079089Y0125527D01*
X0078679Y0125290D01*
X0078221Y0125167D01*
X0074976Y0125167D01*
X0074976Y0129976D01*
X0074568Y0130067D02*
X0054210Y0130067D01*
X0074568Y0131665D02*
X0074976Y0131665D01*
X0074976Y0133264D02*
X0074568Y0133264D01*
X0074568Y0134862D02*
X0074976Y0134862D01*
X0074976Y0128468D02*
X0074568Y0128468D01*
X0074568Y0126870D02*
X0074976Y0126870D01*
X0074976Y0125271D02*
X0074568Y0125271D01*
X0077802Y0123673D02*
X0081741Y0123673D01*
X0080564Y0122074D02*
X0078980Y0122074D01*
X0079384Y0120476D02*
X0080159Y0120476D01*
X0080319Y0118877D02*
X0079751Y0118877D01*
X0082948Y0115680D02*
X0083581Y0115680D01*
X0084547Y0114082D02*
X0087617Y0114082D01*
X0086145Y0112483D02*
X0089215Y0112483D01*
X0087744Y0110885D02*
X0226397Y0110885D01*
X0226397Y0112483D02*
X0110278Y0112483D01*
X0111876Y0114082D02*
X0226397Y0114082D01*
X0226397Y0115680D02*
X0113475Y0115680D01*
X0115073Y0117279D02*
X0226397Y0117279D01*
X0226397Y0118877D02*
X0116672Y0118877D01*
X0118270Y0120476D02*
X0226397Y0120476D01*
X0226397Y0122074D02*
X0119869Y0122074D01*
X0121467Y0123673D02*
X0226397Y0123673D01*
X0226397Y0125271D02*
X0123066Y0125271D01*
X0124664Y0126870D02*
X0226397Y0126870D01*
X0208587Y0128468D02*
X0126263Y0128468D01*
X0127861Y0130067D02*
X0205333Y0130067D01*
X0203447Y0131665D02*
X0129460Y0131665D01*
X0131058Y0133264D02*
X0202117Y0133264D01*
X0201169Y0134862D02*
X0132657Y0134862D01*
X0137576Y0136461D02*
X0141967Y0136461D01*
X0140657Y0138059D02*
X0138886Y0138059D01*
X0139384Y0139658D02*
X0140159Y0139658D01*
X0140225Y0141256D02*
X0139318Y0141256D01*
X0138846Y0142855D02*
X0138620Y0142855D01*
X0137645Y0144453D02*
X0136507Y0144453D01*
X0140855Y0146052D02*
X0146495Y0146052D01*
X0146507Y0144453D02*
X0148094Y0144453D01*
X0148620Y0142855D02*
X0149692Y0142855D01*
X0149318Y0141256D02*
X0150225Y0141256D01*
X0150159Y0139658D02*
X0149384Y0139658D01*
X0148886Y0138059D02*
X0150657Y0138059D01*
X0151967Y0136461D02*
X0147576Y0136461D01*
X0157576Y0136461D02*
X0161967Y0136461D01*
X0162159Y0136269D02*
X0163854Y0135567D01*
X0165689Y0135567D01*
X0167384Y0136269D01*
X0168682Y0137567D01*
X0169384Y0139262D01*
X0169384Y0141097D01*
X0168682Y0142793D01*
X0167384Y0144090D01*
X0165689Y0144792D01*
X0163854Y0144792D01*
X0162159Y0144090D01*
X0160861Y0142793D01*
X0160159Y0141097D01*
X0160159Y0139262D01*
X0160861Y0137567D01*
X0162159Y0136269D01*
X0160657Y0138059D02*
X0158886Y0138059D01*
X0159384Y0139658D02*
X0160159Y0139658D01*
X0160225Y0141256D02*
X0159318Y0141256D01*
X0158620Y0142855D02*
X0160924Y0142855D01*
X0163036Y0144453D02*
X0156507Y0144453D01*
X0153036Y0144453D02*
X0152902Y0144453D01*
X0151304Y0146052D02*
X0199838Y0146052D01*
X0199838Y0147650D02*
X0149705Y0147650D01*
X0148107Y0149249D02*
X0199838Y0149249D01*
X0199838Y0150847D02*
X0146508Y0150847D01*
X0143036Y0144453D02*
X0142246Y0144453D01*
X0120924Y0142855D02*
X0120249Y0142855D01*
X0120225Y0141256D02*
X0120046Y0141256D01*
X0120046Y0139658D02*
X0120159Y0139658D01*
X0120657Y0138059D02*
X0118454Y0138059D01*
X0116855Y0136461D02*
X0121967Y0136461D01*
X0110449Y0134862D02*
X0101957Y0134862D01*
X0101531Y0134436D02*
X0101531Y0134436D01*
X0098211Y0133264D02*
X0108850Y0133264D01*
X0107252Y0131665D02*
X0099149Y0131665D01*
X0099384Y0130067D02*
X0105653Y0130067D01*
X0104054Y0128468D02*
X0099055Y0128468D01*
X0097985Y0126870D02*
X0102456Y0126870D01*
X0100857Y0125271D02*
X0078610Y0125271D01*
X0079784Y0126870D02*
X0081558Y0126870D01*
X0080488Y0128468D02*
X0079784Y0128468D01*
X0088601Y0138059D02*
X0091348Y0138059D01*
X0090797Y0139658D02*
X0089118Y0139658D01*
X0089022Y0141256D02*
X0090915Y0141256D01*
X0091826Y0142855D02*
X0088236Y0142855D01*
X0083789Y0144453D02*
X0059705Y0144453D01*
X0059705Y0146052D02*
X0108338Y0146052D01*
X0109937Y0147650D02*
X0059705Y0147650D01*
X0059705Y0149249D02*
X0111535Y0149249D01*
X0113134Y0150847D02*
X0059705Y0150847D01*
X0059705Y0152446D02*
X0199838Y0152446D01*
X0199838Y0154045D02*
X0059705Y0154045D01*
X0085962Y0115680D02*
X0086018Y0115680D01*
X0089342Y0109286D02*
X0226397Y0109286D01*
X0226397Y0107688D02*
X0090941Y0107688D01*
X0092539Y0106089D02*
X0226397Y0106089D01*
X0226397Y0104491D02*
X0094138Y0104491D01*
X0095736Y0102892D02*
X0226397Y0102892D01*
X0226397Y0101294D02*
X0217832Y0101294D01*
X0217797Y0101314D02*
X0216970Y0101656D01*
X0216106Y0101888D01*
X0215572Y0101958D01*
X0215572Y0095980D01*
X0221550Y0095980D01*
X0221480Y0096514D01*
X0221248Y0097378D01*
X0220906Y0098205D01*
X0220459Y0098980D01*
X0219914Y0099689D01*
X0219281Y0100322D01*
X0218572Y0100867D01*
X0217797Y0101314D01*
X0215572Y0101294D02*
X0213972Y0101294D01*
X0213972Y0101958D02*
X0213437Y0101888D01*
X0212573Y0101656D01*
X0211747Y0101314D01*
X0210972Y0100867D01*
X0210262Y0100322D01*
X0209629Y0099689D01*
X0209085Y0098980D01*
X0208637Y0098205D01*
X0208295Y0097378D01*
X0208063Y0096514D01*
X0207993Y0095980D01*
X0213972Y0095980D01*
X0213972Y0101958D01*
X0213972Y0099695D02*
X0215572Y0099695D01*
X0215572Y0098097D02*
X0213972Y0098097D01*
X0213972Y0096498D02*
X0215572Y0096498D01*
X0215572Y0095980D02*
X0213972Y0095980D01*
X0213972Y0094380D01*
X0215572Y0094380D01*
X0215572Y0095980D01*
X0215572Y0094900D02*
X0226397Y0094900D01*
X0226397Y0096498D02*
X0221482Y0096498D01*
X0220951Y0098097D02*
X0226397Y0098097D01*
X0226397Y0099695D02*
X0219908Y0099695D01*
X0221550Y0094380D02*
X0215572Y0094380D01*
X0215572Y0088401D01*
X0216106Y0088472D01*
X0216970Y0088703D01*
X0217797Y0089045D01*
X0218572Y0089493D01*
X0219281Y0090037D01*
X0219914Y0090670D01*
X0220459Y0091380D01*
X0220906Y0092155D01*
X0221248Y0092981D01*
X0221480Y0093845D01*
X0221550Y0094380D01*
X0221334Y0093301D02*
X0226397Y0093301D01*
X0226397Y0091703D02*
X0220645Y0091703D01*
X0219348Y0090104D02*
X0226397Y0090104D01*
X0226397Y0088506D02*
X0216233Y0088506D01*
X0215572Y0088506D02*
X0213972Y0088506D01*
X0213972Y0088401D02*
X0213972Y0094380D01*
X0207993Y0094380D01*
X0208063Y0093845D01*
X0208295Y0092981D01*
X0208637Y0092155D01*
X0209085Y0091380D01*
X0209629Y0090670D01*
X0210262Y0090037D01*
X0210972Y0089493D01*
X0211747Y0089045D01*
X0212573Y0088703D01*
X0213437Y0088472D01*
X0213972Y0088401D01*
X0213310Y0088506D02*
X0110123Y0088506D01*
X0108524Y0090104D02*
X0180761Y0090104D01*
X0181132Y0089733D02*
X0183494Y0088755D01*
X0186050Y0088755D01*
X0188411Y0089733D01*
X0190218Y0091540D01*
X0191197Y0093902D01*
X0191197Y0096458D01*
X0190218Y0098819D01*
X0188411Y0100627D01*
X0186050Y0101605D01*
X0183494Y0101605D01*
X0181132Y0100627D01*
X0179325Y0098819D01*
X0178347Y0096458D01*
X0178347Y0093902D01*
X0179325Y0091540D01*
X0181132Y0089733D01*
X0179258Y0091703D02*
X0106926Y0091703D01*
X0105327Y0093301D02*
X0178595Y0093301D01*
X0178347Y0094900D02*
X0103729Y0094900D01*
X0102130Y0096498D02*
X0178363Y0096498D01*
X0179025Y0098097D02*
X0100532Y0098097D01*
X0098933Y0099695D02*
X0180201Y0099695D01*
X0182742Y0101294D02*
X0097335Y0101294D01*
X0102769Y0088506D02*
X0033146Y0088506D01*
X0033146Y0090104D02*
X0040761Y0090104D01*
X0039258Y0091703D02*
X0033146Y0091703D01*
X0033146Y0093301D02*
X0038595Y0093301D01*
X0038347Y0094900D02*
X0033146Y0094900D01*
X0033146Y0096498D02*
X0038363Y0096498D01*
X0039025Y0098097D02*
X0033146Y0098097D01*
X0033146Y0099695D02*
X0040201Y0099695D01*
X0033146Y0086907D02*
X0104367Y0086907D01*
X0105966Y0085309D02*
X0033146Y0085309D01*
X0033146Y0083710D02*
X0107564Y0083710D01*
X0109163Y0082112D02*
X0033146Y0082112D01*
X0033146Y0080513D02*
X0110761Y0080513D01*
X0112360Y0078914D02*
X0033146Y0078914D01*
X0033146Y0077316D02*
X0113959Y0077316D01*
X0115557Y0075717D02*
X0033146Y0075717D01*
X0033146Y0074119D02*
X0117156Y0074119D01*
X0118754Y0072520D02*
X0033146Y0072520D01*
X0033146Y0070922D02*
X0120353Y0070922D01*
X0121951Y0069323D02*
X0033146Y0069323D01*
X0033146Y0067725D02*
X0123904Y0067725D01*
X0124509Y0074119D02*
X0226397Y0074119D01*
X0226397Y0075717D02*
X0122911Y0075717D01*
X0121312Y0077316D02*
X0226397Y0077316D01*
X0226397Y0078914D02*
X0119714Y0078914D01*
X0118115Y0080513D02*
X0226397Y0080513D01*
X0226397Y0082112D02*
X0116517Y0082112D01*
X0114918Y0083710D02*
X0226397Y0083710D01*
X0226397Y0085309D02*
X0113320Y0085309D01*
X0111721Y0086907D02*
X0226397Y0086907D01*
X0215572Y0090104D02*
X0213972Y0090104D01*
X0213972Y0091703D02*
X0215572Y0091703D01*
X0215572Y0093301D02*
X0213972Y0093301D01*
X0213972Y0094900D02*
X0191197Y0094900D01*
X0191180Y0096498D02*
X0208061Y0096498D01*
X0208593Y0098097D02*
X0190518Y0098097D01*
X0189343Y0099695D02*
X0209635Y0099695D01*
X0211711Y0101294D02*
X0186801Y0101294D01*
X0190948Y0093301D02*
X0208209Y0093301D01*
X0208898Y0091703D02*
X0190286Y0091703D01*
X0188782Y0090104D02*
X0210195Y0090104D01*
X0214771Y0073161D02*
X0214313Y0073038D01*
X0213903Y0072801D01*
X0213568Y0072466D01*
X0213331Y0072056D01*
X0213208Y0071598D01*
X0213208Y0070180D01*
X0216976Y0070180D01*
X0216976Y0070180D01*
X0216976Y0073161D01*
X0214771Y0073161D01*
X0213622Y0072520D02*
X0192206Y0072520D01*
X0192786Y0070922D02*
X0213208Y0070922D01*
X0213208Y0070180D02*
X0213208Y0068762D01*
X0213331Y0068304D01*
X0213568Y0067893D01*
X0213903Y0067558D01*
X0214313Y0067321D01*
X0214771Y0067199D01*
X0216976Y0067199D01*
X0216976Y0070180D01*
X0216976Y0070180D01*
X0213208Y0070180D01*
X0213208Y0069323D02*
X0193951Y0069323D01*
X0195549Y0067725D02*
X0213736Y0067725D01*
X0216976Y0067725D02*
X0216976Y0067725D01*
X0216976Y0067199D02*
X0219182Y0067199D01*
X0219640Y0067321D01*
X0220050Y0067558D01*
X0220385Y0067893D01*
X0220622Y0068304D01*
X0220745Y0068762D01*
X0220745Y0070180D01*
X0220745Y0071598D01*
X0220622Y0072056D01*
X0220385Y0072466D01*
X0220050Y0072801D01*
X0219640Y0073038D01*
X0219182Y0073161D01*
X0216976Y0073161D01*
X0216976Y0070180D01*
X0216976Y0070180D01*
X0216977Y0070180D02*
X0220745Y0070180D01*
X0216977Y0070180D01*
X0216977Y0070180D01*
X0216976Y0070180D02*
X0216976Y0067199D01*
X0216976Y0069323D02*
X0216976Y0069323D01*
X0216976Y0070922D02*
X0216976Y0070922D01*
X0216976Y0072520D02*
X0216976Y0072520D01*
X0220331Y0072520D02*
X0226397Y0072520D01*
X0226397Y0070922D02*
X0220745Y0070922D01*
X0220745Y0069323D02*
X0226397Y0069323D01*
X0226397Y0067725D02*
X0220217Y0067725D01*
X0226397Y0066126D02*
X0197047Y0066126D01*
X0197372Y0064528D02*
X0226397Y0064528D01*
X0226397Y0062929D02*
X0197372Y0062929D01*
X0197372Y0061331D02*
X0207084Y0061331D01*
X0204584Y0059732D02*
X0197372Y0059732D01*
X0197372Y0058134D02*
X0202886Y0058134D01*
X0201697Y0056535D02*
X0197372Y0056535D01*
X0197372Y0054937D02*
X0200863Y0054937D01*
X0200302Y0053338D02*
X0198136Y0053338D01*
X0199118Y0051740D02*
X0199967Y0051740D01*
X0199838Y0050141D02*
X0199384Y0050141D01*
X0199086Y0048543D02*
X0199838Y0048543D01*
X0199838Y0046944D02*
X0198059Y0046944D01*
X0199838Y0045346D02*
X0059705Y0045346D01*
X0059705Y0046944D02*
X0120159Y0046944D01*
X0120159Y0046387D02*
X0120979Y0045567D01*
X0128564Y0045567D01*
X0129384Y0046387D01*
X0129384Y0053972D01*
X0128564Y0054792D01*
X0120979Y0054792D01*
X0120159Y0053972D01*
X0120159Y0046387D01*
X0120159Y0048543D02*
X0059705Y0048543D01*
X0059705Y0050141D02*
X0120159Y0050141D01*
X0120159Y0051740D02*
X0059576Y0051740D01*
X0059241Y0053338D02*
X0120159Y0053338D01*
X0129384Y0053338D02*
X0131407Y0053338D01*
X0130861Y0052793D02*
X0130159Y0051097D01*
X0130159Y0049262D01*
X0130861Y0047567D01*
X0132159Y0046269D01*
X0133854Y0045567D01*
X0135689Y0045567D01*
X0137384Y0046269D01*
X0138682Y0047567D01*
X0139384Y0049262D01*
X0139384Y0051097D01*
X0138682Y0052793D01*
X0137384Y0054090D01*
X0135689Y0054792D01*
X0133854Y0054792D01*
X0132159Y0054090D01*
X0130861Y0052793D01*
X0130425Y0051740D02*
X0129384Y0051740D01*
X0129384Y0050141D02*
X0130159Y0050141D01*
X0130457Y0048543D02*
X0129384Y0048543D01*
X0129384Y0046944D02*
X0131484Y0046944D01*
X0138059Y0046944D02*
X0141484Y0046944D01*
X0140861Y0047567D02*
X0142159Y0046269D01*
X0143854Y0045567D01*
X0145689Y0045567D01*
X0147384Y0046269D01*
X0148682Y0047567D01*
X0149384Y0049262D01*
X0149384Y0051097D01*
X0148682Y0052793D01*
X0147384Y0054090D01*
X0145689Y0054792D01*
X0143854Y0054792D01*
X0142159Y0054090D01*
X0140861Y0052793D01*
X0140159Y0051097D01*
X0140159Y0049262D01*
X0140861Y0047567D01*
X0140457Y0048543D02*
X0139086Y0048543D01*
X0139384Y0050141D02*
X0140159Y0050141D01*
X0140425Y0051740D02*
X0139118Y0051740D01*
X0138136Y0053338D02*
X0141407Y0053338D01*
X0148136Y0053338D02*
X0151407Y0053338D01*
X0150861Y0052793D02*
X0152159Y0054090D01*
X0153854Y0054792D01*
X0155689Y0054792D01*
X0157384Y0054090D01*
X0158682Y0052793D01*
X0159384Y0051097D01*
X0159384Y0049262D01*
X0158682Y0047567D01*
X0157384Y0046269D01*
X0155689Y0045567D01*
X0153854Y0045567D01*
X0152159Y0046269D01*
X0150861Y0047567D01*
X0150159Y0049262D01*
X0150159Y0051097D01*
X0150861Y0052793D01*
X0150425Y0051740D02*
X0149118Y0051740D01*
X0149384Y0050141D02*
X0150159Y0050141D01*
X0150457Y0048543D02*
X0149086Y0048543D01*
X0148059Y0046944D02*
X0151484Y0046944D01*
X0158059Y0046944D02*
X0161484Y0046944D01*
X0160861Y0047567D02*
X0162159Y0046269D01*
X0163854Y0045567D01*
X0165689Y0045567D01*
X0167384Y0046269D01*
X0168682Y0047567D01*
X0169384Y0049262D01*
X0169384Y0051097D01*
X0168682Y0052793D01*
X0167384Y0054090D01*
X0165689Y0054792D01*
X0163854Y0054792D01*
X0162159Y0054090D01*
X0160861Y0052793D01*
X0160159Y0051097D01*
X0160159Y0049262D01*
X0160861Y0047567D01*
X0160457Y0048543D02*
X0159086Y0048543D01*
X0159384Y0050141D02*
X0160159Y0050141D01*
X0160425Y0051740D02*
X0159118Y0051740D01*
X0158136Y0053338D02*
X0161407Y0053338D01*
X0168136Y0053338D02*
X0171407Y0053338D01*
X0170861Y0052793D02*
X0170159Y0051097D01*
X0170159Y0049262D01*
X0170861Y0047567D01*
X0172159Y0046269D01*
X0173854Y0045567D01*
X0175689Y0045567D01*
X0177384Y0046269D01*
X0178682Y0047567D01*
X0179384Y0049262D01*
X0179384Y0051097D01*
X0178682Y0052793D01*
X0177384Y0054090D01*
X0175689Y0054792D01*
X0173854Y0054792D01*
X0172159Y0054090D01*
X0170861Y0052793D01*
X0170425Y0051740D02*
X0169118Y0051740D01*
X0169384Y0050141D02*
X0170159Y0050141D01*
X0170457Y0048543D02*
X0169086Y0048543D01*
X0168059Y0046944D02*
X0171484Y0046944D01*
X0178059Y0046944D02*
X0181484Y0046944D01*
X0180861Y0047567D02*
X0182159Y0046269D01*
X0183854Y0045567D01*
X0185689Y0045567D01*
X0187384Y0046269D01*
X0188682Y0047567D01*
X0189384Y0049262D01*
X0189384Y0051097D01*
X0188682Y0052793D01*
X0187384Y0054090D01*
X0185689Y0054792D01*
X0183854Y0054792D01*
X0182159Y0054090D01*
X0180861Y0052793D01*
X0180159Y0051097D01*
X0180159Y0049262D01*
X0180861Y0047567D01*
X0180457Y0048543D02*
X0179086Y0048543D01*
X0179384Y0050141D02*
X0180159Y0050141D01*
X0180425Y0051740D02*
X0179118Y0051740D01*
X0178136Y0053338D02*
X0181407Y0053338D01*
X0188136Y0053338D02*
X0191407Y0053338D01*
X0192172Y0054937D02*
X0058681Y0054937D01*
X0057846Y0056535D02*
X0192172Y0056535D01*
X0192172Y0058134D02*
X0056657Y0058134D01*
X0054959Y0059732D02*
X0192172Y0059732D01*
X0192172Y0061331D02*
X0052459Y0061331D01*
X0033146Y0062929D02*
X0192172Y0062929D01*
X0191392Y0064528D02*
X0033146Y0064528D01*
X0033146Y0066126D02*
X0189794Y0066126D01*
X0190425Y0051740D02*
X0189118Y0051740D01*
X0189384Y0050141D02*
X0190159Y0050141D01*
X0190457Y0048543D02*
X0189086Y0048543D01*
X0188059Y0046944D02*
X0191484Y0046944D01*
X0199838Y0043747D02*
X0059705Y0043747D01*
X0059705Y0042149D02*
X0199838Y0042149D01*
X0199838Y0040550D02*
X0059705Y0040550D01*
X0059705Y0038952D02*
X0199838Y0038952D01*
X0199838Y0037353D02*
X0059705Y0037353D01*
X0167576Y0136461D02*
X0171967Y0136461D01*
X0172159Y0136269D02*
X0173854Y0135567D01*
X0175689Y0135567D01*
X0177384Y0136269D01*
X0178682Y0137567D01*
X0179384Y0139262D01*
X0179384Y0141097D01*
X0178682Y0142793D01*
X0177384Y0144090D01*
X0175689Y0144792D01*
X0173854Y0144792D01*
X0172159Y0144090D01*
X0170861Y0142793D01*
X0170159Y0141097D01*
X0170159Y0139262D01*
X0170861Y0137567D01*
X0172159Y0136269D01*
X0170657Y0138059D02*
X0168886Y0138059D01*
X0169384Y0139658D02*
X0170159Y0139658D01*
X0170225Y0141256D02*
X0169318Y0141256D01*
X0168620Y0142855D02*
X0170924Y0142855D01*
X0173036Y0144453D02*
X0166507Y0144453D01*
X0176507Y0144453D02*
X0183036Y0144453D01*
X0183854Y0144792D02*
X0182159Y0144090D01*
X0180861Y0142793D01*
X0180159Y0141097D01*
X0180159Y0139262D01*
X0180861Y0137567D01*
X0182159Y0136269D01*
X0183854Y0135567D01*
X0185689Y0135567D01*
X0187384Y0136269D01*
X0188682Y0137567D01*
X0189384Y0139262D01*
X0189384Y0141097D01*
X0188682Y0142793D01*
X0187384Y0144090D01*
X0185689Y0144792D01*
X0183854Y0144792D01*
X0186507Y0144453D02*
X0190640Y0144453D01*
X0190979Y0144792D02*
X0190159Y0143972D01*
X0190159Y0136387D01*
X0190979Y0135567D01*
X0198564Y0135567D01*
X0199384Y0136387D01*
X0199384Y0143972D01*
X0198564Y0144792D01*
X0190979Y0144792D01*
X0190159Y0142855D02*
X0188620Y0142855D01*
X0189318Y0141256D02*
X0190159Y0141256D01*
X0190159Y0139658D02*
X0189384Y0139658D01*
X0188886Y0138059D02*
X0190159Y0138059D01*
X0190159Y0136461D02*
X0187576Y0136461D01*
X0181967Y0136461D02*
X0177576Y0136461D01*
X0178886Y0138059D02*
X0180657Y0138059D01*
X0180159Y0139658D02*
X0179384Y0139658D01*
X0179318Y0141256D02*
X0180225Y0141256D01*
X0180924Y0142855D02*
X0178620Y0142855D01*
X0198903Y0144453D02*
X0199838Y0144453D01*
X0199838Y0142855D02*
X0199384Y0142855D01*
X0199384Y0141256D02*
X0199838Y0141256D01*
X0199893Y0139658D02*
X0199384Y0139658D01*
X0199384Y0138059D02*
X0200095Y0138059D01*
X0200511Y0136461D02*
X0199384Y0136461D01*
D18*
X0135697Y0100180D03*
X0130697Y0100180D03*
X0125697Y0100180D03*
X0125697Y0105180D03*
X0130697Y0105180D03*
X0120697Y0105180D03*
X0093846Y0094156D03*
X0088846Y0094156D03*
X0088846Y0089156D03*
X0093846Y0089156D03*
X0093846Y0084156D03*
X0088846Y0084156D03*
D19*
X0090746Y0113356D02*
X0108746Y0113356D01*
X0135146Y0139756D01*
X0134772Y0140180D01*
X0140546Y0143356D02*
X0143546Y0140356D01*
X0144746Y0140356D01*
X0144772Y0140180D01*
X0140546Y0143356D02*
X0140546Y0143956D01*
X0137546Y0146956D01*
X0121946Y0146956D01*
X0118346Y0143356D01*
X0118346Y0140356D01*
X0098546Y0120556D01*
X0094946Y0120556D01*
X0094772Y0120180D01*
X0090746Y0113356D02*
X0085346Y0118756D01*
X0085346Y0119956D01*
X0084772Y0120180D01*
X0084772Y0130180D02*
X0088748Y0134156D01*
X0088946Y0134356D01*
X0090146Y0135140D01*
X0099831Y0135140D01*
X0113846Y0149156D01*
X0145795Y0149156D01*
X0154772Y0140180D01*
X0088846Y0134156D02*
X0088748Y0134156D01*
D20*
X0074772Y0120180D02*
X0124772Y0070180D01*
X0189417Y0070180D01*
X0194772Y0064825D01*
X0194772Y0050180D01*
M02*
