G75*
%MOIN*%
%OFA0B0*%
%FSLAX25Y25*%
%IPPOS*%
%LPD*%
%AMOC8*
5,1,8,0,0,1.08239X$1,22.5*
%
%ADD10C,0.00000*%
%ADD11R,0.02362X0.01969*%
%ADD12R,0.01969X0.02362*%
%ADD13R,0.01181X0.03150*%
%ADD14R,0.01575X0.03150*%
%ADD15C,0.00472*%
%ADD16R,0.09449X0.09449*%
%ADD17R,0.01969X0.03150*%
%ADD18R,0.00787X0.00787*%
%ADD19C,0.00500*%
%ADD20R,0.02756X0.03543*%
%ADD21C,0.01000*%
D10*
X0001000Y0001000D02*
X0001000Y0169898D01*
X0187614Y0169898D01*
X0187614Y0001000D01*
X0001000Y0001000D01*
D11*
X0016354Y0097654D03*
X0022260Y0097654D03*
X0028165Y0097654D03*
X0028165Y0109071D03*
X0022260Y0109071D03*
X0016354Y0109071D03*
D12*
X0028165Y0103362D03*
D13*
X0024228Y0023441D03*
X0022260Y0023441D03*
X0020291Y0023441D03*
X0018323Y0023441D03*
X0016354Y0023441D03*
X0014386Y0023441D03*
D14*
X0010449Y0013598D03*
X0028165Y0013598D03*
D15*
X0028401Y0038992D02*
X0028401Y0041748D01*
X0028401Y0038992D02*
X0027929Y0038992D01*
X0027929Y0041748D01*
X0028401Y0041748D01*
X0028401Y0039463D02*
X0027929Y0039463D01*
X0027929Y0039934D02*
X0028401Y0039934D01*
X0028401Y0040405D02*
X0027929Y0040405D01*
X0027929Y0040876D02*
X0028401Y0040876D01*
X0028401Y0041347D02*
X0027929Y0041347D01*
X0026630Y0041748D02*
X0026630Y0038992D01*
X0026158Y0038992D01*
X0026158Y0041748D01*
X0026630Y0041748D01*
X0026630Y0039463D02*
X0026158Y0039463D01*
X0026158Y0039934D02*
X0026630Y0039934D01*
X0026630Y0040405D02*
X0026158Y0040405D01*
X0026158Y0040876D02*
X0026630Y0040876D01*
X0026630Y0041347D02*
X0026158Y0041347D01*
X0024858Y0041748D02*
X0024858Y0038992D01*
X0024386Y0038992D01*
X0024386Y0041748D01*
X0024858Y0041748D01*
X0024858Y0039463D02*
X0024386Y0039463D01*
X0024386Y0039934D02*
X0024858Y0039934D01*
X0024858Y0040405D02*
X0024386Y0040405D01*
X0024386Y0040876D02*
X0024858Y0040876D01*
X0024858Y0041347D02*
X0024386Y0041347D01*
X0023086Y0041748D02*
X0023086Y0038992D01*
X0022614Y0038992D01*
X0022614Y0041748D01*
X0023086Y0041748D01*
X0023086Y0039463D02*
X0022614Y0039463D01*
X0022614Y0039934D02*
X0023086Y0039934D01*
X0023086Y0040405D02*
X0022614Y0040405D01*
X0022614Y0040876D02*
X0023086Y0040876D01*
X0023086Y0041347D02*
X0022614Y0041347D01*
X0021315Y0041748D02*
X0021315Y0038992D01*
X0020843Y0038992D01*
X0020843Y0041748D01*
X0021315Y0041748D01*
X0021315Y0039463D02*
X0020843Y0039463D01*
X0020843Y0039934D02*
X0021315Y0039934D01*
X0021315Y0040405D02*
X0020843Y0040405D01*
X0020843Y0040876D02*
X0021315Y0040876D01*
X0021315Y0041347D02*
X0020843Y0041347D01*
X0019543Y0041748D02*
X0019543Y0038992D01*
X0019071Y0038992D01*
X0019071Y0041748D01*
X0019543Y0041748D01*
X0019543Y0039463D02*
X0019071Y0039463D01*
X0019071Y0039934D02*
X0019543Y0039934D01*
X0019543Y0040405D02*
X0019071Y0040405D01*
X0019071Y0040876D02*
X0019543Y0040876D01*
X0019543Y0041347D02*
X0019071Y0041347D01*
X0018126Y0042693D02*
X0015370Y0042693D01*
X0015370Y0043165D01*
X0018126Y0043165D01*
X0018126Y0042693D01*
X0018126Y0043164D02*
X0015370Y0043164D01*
X0015370Y0044465D02*
X0018126Y0044465D01*
X0015370Y0044465D02*
X0015370Y0044937D01*
X0018126Y0044937D01*
X0018126Y0044465D01*
X0018126Y0044936D02*
X0015370Y0044936D01*
X0015370Y0046236D02*
X0018126Y0046236D01*
X0015370Y0046236D02*
X0015370Y0046708D01*
X0018126Y0046708D01*
X0018126Y0046236D01*
X0018126Y0046707D02*
X0015370Y0046707D01*
X0015370Y0048008D02*
X0018126Y0048008D01*
X0015370Y0048008D02*
X0015370Y0048480D01*
X0018126Y0048480D01*
X0018126Y0048008D01*
X0018126Y0048479D02*
X0015370Y0048479D01*
X0015370Y0049780D02*
X0018126Y0049780D01*
X0015370Y0049780D02*
X0015370Y0050252D01*
X0018126Y0050252D01*
X0018126Y0049780D01*
X0018126Y0050251D02*
X0015370Y0050251D01*
X0015370Y0051551D02*
X0018126Y0051551D01*
X0015370Y0051551D02*
X0015370Y0052023D01*
X0018126Y0052023D01*
X0018126Y0051551D01*
X0018126Y0052022D02*
X0015370Y0052022D01*
X0015370Y0053323D02*
X0018126Y0053323D01*
X0015370Y0053323D02*
X0015370Y0053795D01*
X0018126Y0053795D01*
X0018126Y0053323D01*
X0018126Y0053794D02*
X0015370Y0053794D01*
X0019071Y0054740D02*
X0019071Y0057496D01*
X0019543Y0057496D01*
X0019543Y0054740D01*
X0019071Y0054740D01*
X0019071Y0055211D02*
X0019543Y0055211D01*
X0019543Y0055682D02*
X0019071Y0055682D01*
X0019071Y0056153D02*
X0019543Y0056153D01*
X0019543Y0056624D02*
X0019071Y0056624D01*
X0019071Y0057095D02*
X0019543Y0057095D01*
X0020843Y0057496D02*
X0020843Y0054740D01*
X0020843Y0057496D02*
X0021315Y0057496D01*
X0021315Y0054740D01*
X0020843Y0054740D01*
X0020843Y0055211D02*
X0021315Y0055211D01*
X0021315Y0055682D02*
X0020843Y0055682D01*
X0020843Y0056153D02*
X0021315Y0056153D01*
X0021315Y0056624D02*
X0020843Y0056624D01*
X0020843Y0057095D02*
X0021315Y0057095D01*
X0022614Y0057496D02*
X0022614Y0054740D01*
X0022614Y0057496D02*
X0023086Y0057496D01*
X0023086Y0054740D01*
X0022614Y0054740D01*
X0022614Y0055211D02*
X0023086Y0055211D01*
X0023086Y0055682D02*
X0022614Y0055682D01*
X0022614Y0056153D02*
X0023086Y0056153D01*
X0023086Y0056624D02*
X0022614Y0056624D01*
X0022614Y0057095D02*
X0023086Y0057095D01*
X0024386Y0057496D02*
X0024386Y0054740D01*
X0024386Y0057496D02*
X0024858Y0057496D01*
X0024858Y0054740D01*
X0024386Y0054740D01*
X0024386Y0055211D02*
X0024858Y0055211D01*
X0024858Y0055682D02*
X0024386Y0055682D01*
X0024386Y0056153D02*
X0024858Y0056153D01*
X0024858Y0056624D02*
X0024386Y0056624D01*
X0024386Y0057095D02*
X0024858Y0057095D01*
X0026158Y0057496D02*
X0026158Y0054740D01*
X0026158Y0057496D02*
X0026630Y0057496D01*
X0026630Y0054740D01*
X0026158Y0054740D01*
X0026158Y0055211D02*
X0026630Y0055211D01*
X0026630Y0055682D02*
X0026158Y0055682D01*
X0026158Y0056153D02*
X0026630Y0056153D01*
X0026630Y0056624D02*
X0026158Y0056624D01*
X0026158Y0057095D02*
X0026630Y0057095D01*
X0027929Y0057496D02*
X0027929Y0054740D01*
X0027929Y0057496D02*
X0028401Y0057496D01*
X0028401Y0054740D01*
X0027929Y0054740D01*
X0027929Y0055211D02*
X0028401Y0055211D01*
X0028401Y0055682D02*
X0027929Y0055682D01*
X0027929Y0056153D02*
X0028401Y0056153D01*
X0028401Y0056624D02*
X0027929Y0056624D01*
X0027929Y0057095D02*
X0028401Y0057095D01*
X0029701Y0057496D02*
X0029701Y0054740D01*
X0029701Y0057496D02*
X0030173Y0057496D01*
X0030173Y0054740D01*
X0029701Y0054740D01*
X0029701Y0055211D02*
X0030173Y0055211D01*
X0030173Y0055682D02*
X0029701Y0055682D01*
X0029701Y0056153D02*
X0030173Y0056153D01*
X0030173Y0056624D02*
X0029701Y0056624D01*
X0029701Y0057095D02*
X0030173Y0057095D01*
X0031118Y0053795D02*
X0033874Y0053795D01*
X0033874Y0053323D01*
X0031118Y0053323D01*
X0031118Y0053795D01*
X0031118Y0053794D02*
X0033874Y0053794D01*
X0033874Y0052023D02*
X0031118Y0052023D01*
X0033874Y0052023D02*
X0033874Y0051551D01*
X0031118Y0051551D01*
X0031118Y0052023D01*
X0031118Y0052022D02*
X0033874Y0052022D01*
X0033874Y0050252D02*
X0031118Y0050252D01*
X0033874Y0050252D02*
X0033874Y0049780D01*
X0031118Y0049780D01*
X0031118Y0050252D01*
X0031118Y0050251D02*
X0033874Y0050251D01*
X0033874Y0048480D02*
X0031118Y0048480D01*
X0033874Y0048480D02*
X0033874Y0048008D01*
X0031118Y0048008D01*
X0031118Y0048480D01*
X0031118Y0048479D02*
X0033874Y0048479D01*
X0033874Y0046708D02*
X0031118Y0046708D01*
X0033874Y0046708D02*
X0033874Y0046236D01*
X0031118Y0046236D01*
X0031118Y0046708D01*
X0031118Y0046707D02*
X0033874Y0046707D01*
X0033874Y0044937D02*
X0031118Y0044937D01*
X0033874Y0044937D02*
X0033874Y0044465D01*
X0031118Y0044465D01*
X0031118Y0044937D01*
X0031118Y0044936D02*
X0033874Y0044936D01*
X0033874Y0043165D02*
X0031118Y0043165D01*
X0033874Y0043165D02*
X0033874Y0042693D01*
X0031118Y0042693D01*
X0031118Y0043165D01*
X0031118Y0043164D02*
X0033874Y0043164D01*
X0030173Y0041748D02*
X0030173Y0038992D01*
X0029701Y0038992D01*
X0029701Y0041748D01*
X0030173Y0041748D01*
X0030173Y0039463D02*
X0029701Y0039463D01*
X0029701Y0039934D02*
X0030173Y0039934D01*
X0030173Y0040405D02*
X0029701Y0040405D01*
X0029701Y0040876D02*
X0030173Y0040876D01*
X0030173Y0041347D02*
X0029701Y0041347D01*
D16*
X0024622Y0048244D03*
D17*
X0038008Y0073047D03*
X0041945Y0073047D03*
X0045882Y0073047D03*
X0045882Y0084858D03*
X0041945Y0084858D03*
X0038008Y0084858D03*
D18*
X0041945Y0078953D03*
D19*
X0045094Y0081906D02*
X0046866Y0080134D01*
X0046866Y0076197D01*
X0037024Y0076197D01*
X0037024Y0081906D01*
X0045094Y0081906D01*
X0045241Y0081759D02*
X0037024Y0081759D01*
X0037024Y0081260D02*
X0045740Y0081260D01*
X0046238Y0080762D02*
X0037024Y0080762D01*
X0037024Y0080263D02*
X0046737Y0080263D01*
X0046866Y0079765D02*
X0037024Y0079765D01*
X0037024Y0079266D02*
X0046866Y0079266D01*
X0046866Y0078768D02*
X0037024Y0078768D01*
X0037024Y0078269D02*
X0046866Y0078269D01*
X0046866Y0077771D02*
X0037024Y0077771D01*
X0037024Y0077272D02*
X0046866Y0077272D01*
X0046866Y0076774D02*
X0037024Y0076774D01*
X0037024Y0076275D02*
X0046866Y0076275D01*
D20*
X0028106Y0082890D03*
X0022988Y0082890D03*
X0022004Y0074622D03*
X0016886Y0074622D03*
D21*
X0017200Y0074800D01*
X0017200Y0093700D01*
X0019000Y0095500D01*
X0019000Y0100000D01*
X0024400Y0100000D01*
X0025300Y0099100D01*
X0025300Y0084700D01*
X0023500Y0082900D01*
X0022988Y0082890D01*
X0023500Y0082000D01*
X0025300Y0080200D01*
X0025300Y0072100D01*
X0011800Y0058600D01*
X0011800Y0023500D01*
X0019900Y0015400D01*
X0023500Y0015400D01*
X0041500Y0033400D01*
X0041500Y0073000D01*
X0041945Y0073047D01*
X0045882Y0073047D02*
X0046000Y0073900D01*
X0046900Y0073900D01*
X0050500Y0077500D01*
X0050500Y0091000D01*
X0029800Y0111700D01*
X0014500Y0111700D01*
X0013600Y0110800D01*
X0013600Y0072100D01*
X0014500Y0071200D01*
X0019000Y0071200D01*
X0021700Y0073900D01*
X0022004Y0074622D01*
X0021700Y0074800D01*
X0019900Y0076600D01*
X0019900Y0085600D01*
X0021700Y0087400D01*
X0021700Y0097300D01*
X0022260Y0097654D01*
X0019000Y0100000D02*
X0019000Y0109000D01*
X0017200Y0109000D01*
X0016354Y0109071D01*
X0019000Y0109000D02*
X0021700Y0109000D01*
X0022260Y0109071D01*
X0028165Y0103362D02*
X0028900Y0102700D01*
X0032500Y0102700D01*
X0048700Y0086500D01*
X0048700Y0082900D01*
X0046900Y0081100D01*
X0045100Y0081100D01*
X0042400Y0083800D01*
X0041945Y0084858D01*
X0041500Y0084700D01*
X0042400Y0083800D01*
X0013600Y0055000D01*
X0013600Y0041500D01*
X0016300Y0038800D01*
X0016300Y0023500D01*
X0016354Y0023441D01*
X0016748Y0048244D02*
X0024622Y0048244D01*
X0032496Y0048244D01*
X0028106Y0082890D02*
X0028000Y0082900D01*
X0028000Y0088300D01*
X0043300Y0088300D01*
X0045100Y0086500D01*
X0045100Y0085600D01*
X0045882Y0084858D01*
X0028000Y0088300D02*
X0028000Y0097300D01*
X0028165Y0097654D01*
M02*
